<?xml version="1.0" encoding="UTF-8" standalone="no"?>
<!DOCTYPE svg PUBLIC "-//W3C//DTD SVG 1.1//EN" "http://www.w3.org/Graphics/SVG/1.1/DTD/svg11.dtd">
<svg width="100%" height="100%" viewBox="0 0 288 276" version="1.1" xmlns="http://www.w3.org/2000/svg" xmlns:xlink="http://www.w3.org/1999/xlink" xml:space="preserve" xmlns:serif="http://www.serif.com/" style="fill-rule:evenodd;clip-rule:evenodd;stroke-linecap:round;stroke-linejoin:round;stroke-miterlimit:1.5;">
    <g transform="matrix(1,0,0,1,-591.066,-1807.4)">
        <g transform="matrix(0.921886,0,0,1,46.4282,67.963)">
            <path d="M813.71,1776.8C828.51,1754.56 850.54,1760.57 851.55,1761.07C868.529,1769.56 853.96,1804 852.515,1807.41C876.946,1801.31 881.556,1802.86 885.827,1814.53C891.001,1828.67 864.886,1838.5 879.548,1842.17C888.555,1844.42 896.805,1848.22 897.638,1859.26C898.353,1868.74 894.065,1886.59 874.721,1878.86C890.73,1892.58 894.392,1909 885.827,1919.07C880.238,1925.63 875.51,1931.62 853.481,1918.44C854.605,1922.56 863.924,1952.4 850.394,1966.54C847.249,1969.82 829.867,1978.95 816.793,1956.09C821.105,1974.37 816.028,1991.43 809.055,1996.06C794.862,2005.49 772.483,1987.5 771.648,1985.68C770.057,1999.13 761.469,2009.52 755.906,2010.21C727.79,2013.73 716.427,2000.34 720.467,1984C697.169,1996.87 698.48,2000.72 685.039,1996.06C668.635,1990.37 662.278,1985.01 666.183,1959.95C647.099,1966.99 631.682,1961.48 625.984,1956.8C617.404,1949.74 612.333,1929.73 623.902,1915.09C621.478,1913.15 594.478,1911.37 595.578,1889.76C596.374,1874.12 607.196,1868.68 609.625,1868.43C597.218,1855.4 593.671,1851.1 595.956,1839.13C597.445,1831.33 598.089,1828.34 605.287,1823.81C612.149,1819.48 618.694,1818.11 625.984,1818.9C616.116,1778.07 647.518,1742.86 678.882,1786.77C676.474,1745.82 709.084,1734.28 724.911,1777.36C725.595,1774.43 733.174,1741.95 752.108,1751.42C758.716,1754.72 765.175,1771.68 766.078,1773.35C781.019,1724.8 825.054,1742.77 813.71,1776.8Z" style="fill:rgb(196,233,128);fill-opacity:0.39;stroke:rgb(196,233,128);stroke-opacity:0.7;stroke-width:8.66px;"/>
        </g>
    </g>
</svg>
