<?xml version="1.0" encoding="UTF-8" standalone="no"?>
<!DOCTYPE svg PUBLIC "-//W3C//DTD SVG 1.1//EN" "http://www.w3.org/Graphics/SVG/1.1/DTD/svg11.dtd">
<svg width="100%" height="100%" viewBox="0 0 725 741" version="1.1" xmlns="http://www.w3.org/2000/svg" xmlns:xlink="http://www.w3.org/1999/xlink" xml:space="preserve" xmlns:serif="http://www.serif.com/" style="fill-rule:evenodd;clip-rule:evenodd;stroke-linejoin:round;stroke-miterlimit:2;">
    <g transform="matrix(1,0,0,1,-346.302,-362.046)">
        <g transform="matrix(1,0,0,1,-115.993,-118.773)">
            <path d="M850.394,519.685C871.25,456.084 931.29,497.808 935.314,505.856C962.358,559.944 971.878,550.629 1031.3,553.509C1032.64,555.386 1025.82,571.009 1093.35,602.169L1094.07,645.049C1124.42,656.359 1142.79,644.372 1136.14,677.618C1127.32,721.741 1176.6,758.89 1182.85,763.603C1182.5,764.937 1146.73,796.553 1175.78,854.665C1187.23,877.567 1164.94,966.73 1162.57,976.22C1158.28,993.364 1183.36,1064.05 1121.49,1062.91C1108.37,1109.22 1117.69,1128.23 1075.37,1124.2C961.312,1113.34 1010.19,1187.06 968.504,1181.1C934.431,1176.24 915.582,1213.62 879.822,1216.69C818.032,1221.98 807.443,1177.33 779.528,1204.72C758.65,1225.21 690.353,1178.64 685.039,1157.48C672.066,1105.83 634.007,1154.66 590.551,1121.15L566.929,1062.99C508.108,1031.08 486.459,1050.27 494.017,997.36C499.507,958.933 459.303,968.602 467.592,931.297C475.441,895.98 479.291,898.422 475.357,861.048L503.146,826.558C491.873,777.556 478.185,769.209 520.442,741.038C550.031,721.312 466.289,652.682 543.307,614.173C581.804,594.925 591.111,619.461 626.753,590.551C626.753,587.953 637.656,460.913 667.88,543.988L706.958,526.335C763.884,573.992 749.949,513.913 758.267,511.14C796.991,498.232 794.267,522.063 850.394,519.685Z" style="fill:rgb(0,100,0);fill-opacity:0.18;"/>
            <path d="M563.699,1065.9C541.096,1053.92 527.613,1050.52 513.196,1045.5C496.671,1039.75 487.781,1033.97 488.528,1011.7C488.941,999.398 491.36,993.628 490.086,985.663C487.433,969.074 470.155,966.812 464.217,951.233C460.551,941.615 463.207,931.909 465.047,924.157C471.779,895.79 474.804,895.742 471.481,863.185C471.461,862.997 471.271,861.129 471.287,860.832C471.297,860.631 471.356,859.518 472.183,858.49C481.016,847.503 489.885,836.544 498.721,825.559C493.178,802.434 489.144,793.084 487.89,781.847C485.861,763.662 495.481,752.875 518.172,737.661C525.259,732.908 523.996,724.271 518.089,707.954C508.919,682.622 490.923,645.157 528.662,618.177C529.053,617.897 544.936,606.196 563.581,602.926C578.104,600.38 587.569,603.293 598.814,600.931C608.635,598.868 616.818,593.2 622.848,588.469C623.738,577.862 628.612,529.288 640.62,516.015C640.733,515.89 649.791,504.575 660.567,519.444C664.683,525.123 668.138,533.314 670.157,538.53C682.082,533.185 693.966,527.749 705.9,522.426C706.068,522.351 707.637,522.029 709.024,522.851C710.129,523.507 728.883,540.331 740.053,540.6C746.051,540.744 748.557,535.671 750.303,523.85C751.464,515.996 751.921,509.034 756.939,507.318C768.336,503.422 775.809,503.282 777.484,503.251C792.458,502.97 800.035,509.429 817.126,513.266C829.028,515.938 840.898,515.927 847.34,515.746C851.016,505.429 862.155,479.855 891.571,480.849C913.758,481.599 935.836,497.645 939.021,503.964C951.693,529.108 960.31,541.39 974.568,545.635C986.791,549.273 1002.9,548.041 1030.11,549.292C1030.27,549.3 1031.81,549.371 1032.15,549.441C1035.13,550.064 1035.56,553.2 1035.62,553.631C1035.84,555.274 1035.21,561.902 1052.11,574.364C1069.57,587.225 1094.56,597.977 1095.67,598.727C1097.04,599.652 1097.43,601.249 1097.44,601.438C1097.73,614.984 1097.89,628.533 1098.16,642.08C1112,646.696 1120.9,646.398 1129.05,648.782C1142.36,652.675 1143.23,663.009 1140.21,678.414C1138.92,684.997 1134.31,709.899 1165.99,743.1C1176.21,753.802 1185.19,760.063 1185.83,760.727C1186.59,761.518 1187.98,763.869 1185.88,766.486C1182.95,770.146 1153.08,799.269 1179.15,852.156C1181.17,856.249 1189.05,869.679 1174.86,940.439C1170.56,961.881 1166.59,976.87 1166.4,978.132C1164.01,993.892 1181.31,1049.81 1142.49,1064.01C1135.84,1066.44 1128.78,1066.95 1124.64,1067.04C1119.97,1084.52 1119.28,1092.34 1116.61,1103.42C1112.62,1119.98 1106.44,1129.1 1084.33,1128.84C1075.57,1128.74 1066.33,1126.97 1051.05,1127.25C1002.26,1128.14 998.863,1150.45 993.607,1166.92C990.374,1177.06 985.796,1187.59 968.191,1185.21C956.774,1183.67 947.3,1186.23 932.688,1195.62C916.286,1206.16 901.692,1219.06 879.427,1220.84C827.786,1224.97 810.377,1195.19 793.099,1200.53C787.207,1202.35 782.891,1207.41 780.793,1209.07C758.807,1226.42 705.807,1193.14 687.754,1170.52C681.587,1162.8 681.214,1158.79 680.317,1155.71C675.108,1137.86 666.86,1135.64 655.078,1136.18C638.029,1136.96 614.091,1144.11 588.59,1124.8C588.479,1124.72 587.643,1124.08 587.299,1123.63C587.05,1123.31 587.014,1123.22 586.998,1123.18L563.699,1065.9ZM854.231,520.952C853.978,521.34 853.828,521.789 853.575,522.177C853.418,522.418 852.485,523.365 851.256,523.633C850.615,523.773 842.257,524.141 833.722,523.642C813.962,522.487 803.176,517.589 793.891,514.363C783.126,510.623 775.546,509.845 760.215,514.762C757.922,519.906 759.096,538.508 749.397,545.803C737.544,554.718 718.613,541.06 706.331,531.059C694.065,536.589 681.816,542.156 669.548,547.68C667.814,548.461 665.134,548.005 664.075,545.382C663.715,544.492 656.981,524.906 650.477,520.494C649.328,519.715 648.411,519.466 646.664,521.42C637.549,531.614 632.081,574.029 630.872,589.71C630.715,591.74 630.756,592.541 628.879,594.05C597.691,619.129 584.954,605.288 559.762,612.099C548.839,615.052 531.762,623.299 522.534,634.806C505.629,655.888 516.912,681.047 525.357,704.137C530.585,718.433 536.003,734.888 523.324,743.991C519.075,747.042 502.502,757.168 497.672,767.964C492.163,780.279 499.718,793.988 506.849,824.49C506.881,824.63 507.183,825.921 507.208,826.246C507.227,826.485 507.332,827.854 506.319,829.115C497.419,840.185 488.183,850.991 479.585,862.297C479.465,862.455 481.73,878.73 480.73,891.144C479.784,902.898 476.281,910.933 471.576,932.177C466.719,954.111 480.065,956.661 490.353,968.203C499.378,978.328 499.291,989.14 497.974,998.543C494.196,1025.53 498.652,1030.58 509.232,1035.24C520.463,1040.18 540.366,1044.05 568.18,1059.02C568.285,1059.08 569.176,1059.56 569.462,1059.78C569.55,1059.85 570.212,1060.37 570.398,1060.83C578.288,1080.04 586.02,1099.32 593.905,1118.54C602.195,1124.62 612.65,1130.22 630.374,1129.91C649.855,1129.57 668.481,1122.43 680.636,1137.67C686.759,1145.35 688.619,1155.67 689.437,1157.8C695.651,1173.89 738.725,1205.24 764.395,1205.71C773.379,1205.87 776.29,1202.11 777.7,1200.79C796.682,1183.05 810.139,1195.1 829.247,1203.92C837.174,1207.58 854.179,1214.96 879.858,1212.56C914.053,1209.36 932.72,1172.03 969.07,1177.03C981.926,1178.79 983.187,1172.71 987.306,1159.44C993.498,1139.5 1004.23,1115.13 1068.52,1119.5C1079.95,1120.28 1095.3,1122.87 1102.32,1115.73C1109.59,1108.35 1109.6,1090.23 1117.21,1062.89C1117.25,1062.75 1117.6,1061.49 1117.76,1061.16C1118.69,1059.16 1120.57,1058.88 1120.88,1058.83C1123.09,1058.5 1141,1060.41 1151.3,1048.44C1167.36,1029.77 1155.59,990.202 1158.38,976.047C1158.48,975.51 1179.74,892.937 1173.88,862.336C1172.74,856.339 1171.43,856.22 1167.48,846.248C1149.85,801.801 1169.15,773.636 1176.91,764.226C1162.38,752.63 1123.97,718.263 1132.08,676.822C1133.98,667.064 1133.95,661.111 1130.81,658.63C1125.67,654.564 1111.17,655.758 1093,649.075C1092.86,649.025 1091.96,648.696 1091.41,648.23C1090.37,647.362 1090,645.991 1090,645.825C1089.69,632.165 1089.54,618.501 1089.26,604.84C1080.02,600.516 1061.34,591.483 1047.18,581.052C1032.12,569.952 1028.77,562.15 1027.8,557.519C997.383,556.289 983.918,557.512 970.774,553.154C953.987,547.586 944.104,532.563 931.607,507.747C930.532,505.611 918.17,495.179 902.285,490.894C887.974,487.035 879.084,490.469 874.846,492.693C862.043,499.415 856.609,514.242 854.35,520.991L854.231,520.952Z" style="fill:rgb(0,100,0);fill-opacity:0.4;"/>
        </g>
    </g>
</svg>
