<?xml version="1.0" encoding="UTF-8" standalone="no"?>
<!DOCTYPE svg PUBLIC "-//W3C//DTD SVG 1.1//EN" "http://www.w3.org/Graphics/SVG/1.1/DTD/svg11.dtd">
<svg width="100%" height="100%" viewBox="0 0 456 456" version="1.1" xmlns="http://www.w3.org/2000/svg" xmlns:xlink="http://www.w3.org/1999/xlink" xml:space="preserve" xmlns:serif="http://www.serif.com/" style="fill-rule:evenodd;clip-rule:evenodd;stroke-linecap:round;stroke-linejoin:round;stroke-miterlimit:1.5;">
    <g transform="matrix(1,0,0,1,-493.971,-1237.06)">
        <g transform="matrix(1,0,0,1,-1173.55,510.432)">
            <path d="M1916.03,738.048C1913.58,729.55 1875.86,720.484 1860.02,761.52C1833.79,763.674 1822.85,780.3 1818.9,779.528C1774.65,770.874 1756.2,786.673 1748.03,814.961C1704.47,813.863 1695,839.05 1700.79,862.205C1708.36,892.479 1651.08,898.236 1679.82,930.095C1704.65,957.628 1648.4,987.966 1694.06,1012.67C1698.09,1037.27 1692.07,1083.88 1717.67,1071.07C1721.52,1069.15 1757.98,1084.6 1759.84,1086.61C1779.35,1107.75 1770.77,1118.53 1795.28,1133.86C1812.08,1113.53 1823.35,1151.6 1842.52,1133.86C1845.37,1139.77 1893.56,1211.43 1937.01,1157.48C1949.59,1141.86 1969.57,1162.71 2015.3,1144.17C2061.74,1125.35 2008.33,1075.6 2057.07,1065.85C2088.9,1059.49 2084.92,1048.58 2071.94,1019.37C2120.78,981.793 2116.41,977.243 2114.5,960.118C2111.99,937.522 2124.49,937.012 2114.5,917.041C2102.78,893.599 2075.81,912.9 2079.26,887.018C2082.37,863.717 2110.15,820.82 2047.93,837.414C2040.16,839.485 2010.76,829.534 2028.35,806.085C2035.31,796.804 2008.21,758.341 1982.66,783.894C1964.74,801.819 1957.8,738.015 1942.19,736.9C1922.27,735.477 1932.36,746.273 1916.03,738.048Z" style="fill:rgb(14,233,128);fill-opacity:0.26;stroke:rgb(0,197,0);stroke-opacity:0.39;stroke-width:8.33px;"/>
        </g>
    </g>
</svg>
