<?xml version="1.0" encoding="UTF-8" standalone="no"?>
<!DOCTYPE svg PUBLIC "-//W3C//DTD SVG 1.1//EN" "http://www.w3.org/Graphics/SVG/1.1/DTD/svg11.dtd">
<svg  width="30" height="30" viewBox="0 0 192 204" version="1.1" xmlns="http://www.w3.org/2000/svg" xmlns:xlink="http://www.w3.org/1999/xlink" xml:space="preserve" xmlns:serif="http://www.serif.com/" style="fill-rule:evenodd;clip-rule:evenodd;stroke-linecap:round;stroke-linejoin:round;stroke-miterlimit:1.5;">
    <g transform="matrix(1,0,0,1,-628.609,-2643.59)">
        <g transform="matrix(1.06629,0,0,1.06629,-2400.84,843.172)">
            <path d="M2936.22,1781.1C2924.34,1783.39 2927.18,1766.79 2932.82,1758.79C2934.75,1756.05 2970.12,1723.51 2936.22,1703.74" style="fill:none;stroke:rgb(0,197,0);stroke-opacity:0.69;stroke-width:3.91px;"/>
        </g>
        <g transform="matrix(1.06629,0,0,1.06629,-2400.98,842.77)">
            <path d="M2951.32,1726.51C2951.24,1725.5 2952.84,1713.73 2961.33,1707.88C2961.68,1713.25 2963.88,1720.01 2951.04,1727.71" style="fill:rgb(196,233,128);stroke:rgb(0,197,0);stroke-opacity:0.69;stroke-width:3.91px;"/>
        </g>
        <g transform="matrix(0.912522,0,0,1.15188,-1950.53,694.448)">
            <path d="M2941.33,1749.07C2943.2,1741.06 2929.63,1731.53 2929.49,1733.33C2928.66,1744.08 2941.22,1749.52 2941.33,1749.07Z" style="fill:rgb(196,233,128);stroke:rgb(0,197,0);stroke-opacity:0.69;stroke-width:4.01px;"/>
        </g>
        <g transform="matrix(1.04345,0,0,1.10639,-2337.73,772.997)">
            <path d="M2939.8,1705.04C2934.47,1702.92 2935.32,1694.84 2935.35,1692.59C2937.59,1695.77 2940.32,1698.17 2939.8,1705.04Z" style="fill:rgb(196,233,128);stroke:rgb(0,197,0);stroke-opacity:0.69;stroke-width:3.87px;"/>
        </g>
        <g transform="matrix(1.06629,0,0,1.06629,-2406.53,841.157)">
            <path d="M2940.92,1705.23C2935.76,1705 2932.34,1702.97 2924.3,1708.31C2936.07,1711.37 2935.71,1707.84 2940.92,1705.23Z" style="fill:rgb(196,233,128);stroke:rgb(0,197,0);stroke-opacity:0.69;stroke-width:3.91px;"/>
        </g>
        <g transform="matrix(1.06629,0,0,1.06629,-2400.98,842.77)">
            <path d="M2936.22,1781.1C2940.92,1775.72 2986.54,1773.06 2967.51,1820.62C2955.93,1849.57 2982.25,1848.55 2986.25,1852.56" style="fill:none;stroke:rgb(0,197,0);stroke-opacity:0.69;stroke-width:3.91px;"/>
        </g>
        <g transform="matrix(1.08195,0,0,1.12547,-2447.33,736.373)">
            <path d="M2952.72,1779.6C2952.88,1780.11 2955.16,1781.36 2957.22,1783.91C2960.38,1787.82 2959.14,1796.68 2959.03,1797.79C2953.59,1789.61 2952.56,1788.38 2952.72,1779.6Z" style="fill:rgb(196,233,128);stroke:rgb(0,197,0);stroke-opacity:0.69;stroke-width:3.77px;"/>
        </g>
        <g transform="matrix(1.06629,0,0,1.06629,-2400.98,842.77)">
            <path d="M2972.55,1799.65C2977.99,1802.08 2985.23,1810.64 2982.44,1823.32C2977.56,1816.91 2971.43,1810.81 2972.55,1799.65Z" style="fill:rgb(196,233,128);stroke:rgb(0,197,0);stroke-opacity:0.69;stroke-width:3.91px;"/>
        </g>
        <g transform="matrix(1.06629,0,0,1.06629,-2400.98,842.77)">
            <path d="M2968.59,1817.46C2967.41,1820.76 2953.76,1826.65 2944.49,1825.98C2960.58,1837.28 2968.37,1819.63 2968.59,1817.46Z" style="fill:rgb(196,233,128);stroke:rgb(0,197,0);stroke-opacity:0.69;stroke-width:3.91px;"/>
        </g>
        <g transform="matrix(1.06629,0,0,1.06629,-2400.98,842.77)">
            <path d="M2969.88,1844.88C2970.91,1844.62 2984.81,1844.89 2990.74,1834.17C2991.01,1836.95 2992.5,1843.12 2985.24,1846.65C2981.02,1848.7 2970.58,1845.11 2969.88,1844.88Z" style="fill:rgb(196,233,128);stroke:rgb(0,197,0);stroke-opacity:0.69;stroke-width:3.91px;"/>
        </g>
        <g transform="matrix(1.06629,0,0,1.06629,-2400.98,842.77)">
            <path d="M2979.92,1850.2C2979.42,1852.49 2989.93,1853.23 2984.68,1867.39C2988.57,1863.01 2990.24,1861.84 2989.37,1857.87C2988.45,1853.7 2983.46,1849.76 2979.92,1850.2Z" style="fill:rgb(196,233,128);stroke:rgb(0,197,0);stroke-opacity:0.69;stroke-width:3.91px;"/>
        </g>
        <g transform="matrix(1.06629,0,0,1.06629,-2400.98,842.77)">
            <path d="M2986.25,1852.29C2996.01,1853.91 2996.17,1852.21 3000.36,1846.45C2993.56,1849.85 2993.85,1851.53 2986.25,1852.29Z" style="fill:rgb(196,233,128);stroke:rgb(0,197,0);stroke-opacity:0.69;stroke-width:3.91px;"/>
        </g>
        <g transform="matrix(1.06629,0,0,1.06629,-2400.98,842.77)">
            <path d="M2936.22,1781.1C2939.42,1787.59 2943.66,1812.73 2914.3,1804.34C2875.59,1793.28 2857.85,1817.79 2854.72,1831.3" style="fill:none;stroke:rgb(0,197,0);stroke-opacity:0.69;stroke-width:3.91px;"/>
        </g>
        <g transform="matrix(1.06629,0,0,1.06629,-2400.98,842.77)">
            <path d="M2873.62,1807.76C2872.87,1807.87 2868.38,1809.95 2868.61,1817.44C2868.72,1821.28 2869.36,1822.13 2872.24,1828.02C2874.12,1823.72 2874.78,1823.76 2875.73,1819.5C2876.8,1814.66 2874.42,1812.55 2873.62,1807.76Z" style="fill:rgb(196,233,128);stroke:rgb(0,197,0);stroke-opacity:0.69;stroke-width:3.91px;"/>
        </g>
        <g transform="matrix(1.06629,0,0,1.06629,-2401.96,843.808)">
            <path d="M2896.98,1800.57C2890.55,1791.99 2876.98,1796.69 2874.13,1797.47C2883.86,1802.26 2891.73,1799.26 2896.98,1800.57Z" style="fill:rgb(196,233,128);stroke:rgb(0,197,0);stroke-opacity:0.69;stroke-width:3.91px;"/>
        </g>
        <g transform="matrix(1.06629,0,0,1.06629,-2400.98,842.77)">
            <path d="M2936.9,1783.23C2936.7,1783.09 2937.18,1786.72 2935.67,1790.09C2932.79,1796.59 2921.09,1797.39 2921.06,1797.4C2923.25,1798.59 2928.42,1803.78 2933.99,1798.34C2938.45,1793.98 2937.66,1786.27 2936.9,1783.23Z" style="fill:rgb(196,233,128);stroke:rgb(0,197,0);stroke-opacity:0.69;stroke-width:3.91px;"/>
        </g>
        <g transform="matrix(1.06629,0,0,1.06629,-2400.98,842.77)">
            <path d="M2854.72,1831.89C2849.37,1840.7 2844.49,1838.17 2843.2,1838.49C2843.84,1838.95 2850.09,1843.43 2853.06,1837.49C2853.26,1837.08 2855.21,1833.83 2854.72,1831.89Z" style="fill:rgb(196,233,128);stroke:rgb(0,197,0);stroke-opacity:0.69;stroke-width:3.91px;"/>
        </g>
        <g transform="matrix(1.06629,0,0,1.06629,-2400.98,842.77)">
            <path d="M2854.72,1831.3C2857.71,1838.77 2858.7,1836.43 2865.55,1840.83C2853.3,1843.16 2855.16,1834.07 2854.72,1831.3Z" style="fill:rgb(196,233,128);stroke:rgb(0,197,0);stroke-opacity:0.69;stroke-width:3.91px;"/>
        </g>
        <g transform="matrix(1.44836,0,0,1.44836,-3530.65,172.606)">
            <g transform="matrix(1,0,0,1,79.5403,-7.8377)">
                <path d="M2899.2,1759.41C2898.49,1754.33 2890.73,1741.31 2903.11,1739.25C2915.09,1737.25 2911.79,1755.09 2905.11,1761.78C2909.96,1755.46 2925.17,1753.6 2922.82,1767.68C2921.36,1776.46 2907.14,1772.93 2903.92,1766.5C2913.1,1776.82 2908.09,1785.05 2903.92,1786.58C2893.02,1790.58 2889.4,1775.88 2898.02,1766.5C2893.78,1772.92 2887.47,1775.36 2883.85,1774.77C2878.67,1773.91 2875.65,1765.53 2879.12,1762.96C2887.59,1756.67 2896.74,1762.91 2896.84,1762.96C2896.58,1762.85 2877.17,1756.22 2880.3,1749.96C2881.1,1748.37 2889.86,1743.64 2896.14,1750.97C2896.96,1751.93 2898.46,1757.78 2899.2,1759.41Z" style="fill:rgb(128,128,252);fill-opacity:0.28;stroke:rgb(128,128,252);stroke-opacity:0.69;stroke-width:2.88px;"/>
            </g>
            <g transform="matrix(1,0,0,1,79.5403,-7.8377)">
                <path d="M2902.4,1760.11C2897.65,1756.87 2894.86,1764.37 2898.81,1767C2903.21,1769.93 2909.85,1763.3 2902.4,1760.11Z" style="fill:rgb(128,128,252);fill-opacity:0.28;stroke:rgb(128,128,252);stroke-opacity:0.69;stroke-width:2.88px;"/>
            </g>
        </g>
        <g transform="matrix(1.4012,0,0,1.4012,-3377.95,243.772)">
            <g transform="matrix(1,0,0,1,-121.647,-18.7195)">
                <path d="M3015.35,1776.2C3009.04,1764.35 3035.04,1750.24 3038.4,1761.66C3041.12,1770.91 3025.7,1777.93 3022.43,1779.74C3025.73,1780.13 3038.93,1775.74 3037.93,1785.7C3036.99,1795.19 3021.58,1788.78 3018.89,1785.65C3038.25,1815.3 2995.32,1813.52 3011.8,1785.65C3002.28,1794.65 2987.8,1791.11 2990.32,1782.1C2993.34,1771.33 3010.84,1779.21 3011.8,1779.74C3011.35,1778.53 2990.15,1769.7 2999.99,1763.21C3016.56,1752.28 3012.79,1773.64 3015.35,1776.2Z" style="fill:rgb(128,128,252);fill-opacity:0.28;stroke:rgb(128,128,252);stroke-opacity:0.69;stroke-width:2.97px;"/>
            </g>
            <g transform="matrix(1,0,0,1,-121.647,-18.7195)">
                <path d="M3018.9,1776.38C3012.62,1772.53 3006.13,1784.96 3014.48,1786.63C3016.97,1787.12 3026.59,1781.09 3018.9,1776.38Z" style="fill:rgb(128,128,252);fill-opacity:0.28;stroke:rgb(128,128,252);stroke-opacity:0.69;stroke-width:2.97px;"/>
            </g>
        </g>
        <g transform="matrix(1.56514,0,0,1.56514,-3863.23,-66.7614)">
            <path d="M2916.14,1834.25C2916.03,1833.21 2908.74,1824.58 2912.75,1819.95C2913.55,1819.02 2920.73,1810.75 2928.08,1818.44C2935.13,1825.84 2924.02,1835.15 2923.23,1835.43C2934.03,1830.81 2939.1,1828.76 2940.95,1836.61C2943.62,1847.98 2931.99,1845.13 2924.41,1841.34C2935.65,1844.62 2930.38,1857.84 2925.52,1859.79C2915.32,1863.87 2913.55,1849.94 2918.5,1842.52C2916.12,1849.19 2903.33,1857.9 2899.28,1849.8C2894.15,1839.55 2913.78,1839.04 2914.96,1838.98C2914.61,1838.9 2893.27,1839.49 2898.43,1830.71C2905.53,1818.6 2913.79,1831.9 2916.14,1834.25Z" style="fill:rgb(128,128,252);fill-opacity:0.25;stroke:rgb(128,128,252);stroke-opacity:0.69;stroke-width:2.66px;"/>
            <path d="M2919.83,1833.62C2911.03,1834.95 2915.52,1842.67 2918.67,1842.83C2927.67,1843.31 2924.52,1833.1 2919.83,1833.62Z" style="fill:rgb(128,128,252);fill-opacity:0.25;stroke:rgb(128,128,252);stroke-opacity:0.69;stroke-width:2.66px;"/>
        </g>
    </g>
</svg>
