<?xml version="1.0" encoding="UTF-8" standalone="no"?>
<!DOCTYPE svg PUBLIC "-//W3C//DTD SVG 1.1//EN" "http://www.w3.org/Graphics/SVG/1.1/DTD/svg11.dtd">
<svg width="100%" height="100%" viewBox="0 0 146 143" version="1.1" xmlns="http://www.w3.org/2000/svg" xmlns:xlink="http://www.w3.org/1999/xlink" xml:space="preserve" xmlns:serif="http://www.serif.com/" style="fill-rule:evenodd;clip-rule:evenodd;stroke-linecap:round;stroke-linejoin:round;stroke-miterlimit:1.5;">
    <g transform="matrix(1,0,0,1,-2974.29,-993.779)">
        <g transform="matrix(0.516849,0,0,0.660704,1776.25,-684.693)">
            <path d="M2457.15,2591.43C2436.66,2550.45 2523.21,2510.36 2511.14,2586.83C2545.33,2537.44 2589.92,2581.51 2588.11,2596.02C2586.89,2605.75 2561.97,2612.55 2559.39,2613.25C2564.1,2613.92 2584.72,2599.99 2593.18,2633.86C2600.33,2662.44 2596.24,2676.41 2566.7,2676.52C2578.81,2687.95 2579.26,2689.75 2579.62,2692.91C2580.93,2704.61 2581.35,2704.72 2574.8,2716.53C2564.42,2735.28 2529.62,2723.01 2519.18,2717.79C2520.98,2722.72 2549.82,2741.59 2497.93,2751.97C2473.04,2756.95 2465.75,2721.31 2466.34,2716.64C2461.44,2722.08 2467.26,2746.56 2421.26,2751.97C2417.42,2752.42 2340.04,2742.23 2392.82,2709.75C2386.45,2709.59 2343.03,2713.8 2338.58,2681.1C2334.29,2649.58 2354.12,2652.69 2358.35,2652.31C2354.23,2651.02 2310.25,2637.28 2325.04,2609.8C2339.85,2582.31 2349.24,2586.36 2369.73,2607.74C2329.97,2548.76 2418.49,2521.15 2422.68,2579.94C2424.64,2548.58 2443.55,2561.66 2444.88,2562.99C2448.49,2566.6 2455,2567.8 2457.15,2591.43Z" style="fill:rgb(128,128,252);fill-opacity:0.25;stroke:rgb(128,128,252);stroke-opacity:0.47;stroke-width:7.02px;"/>
        </g>
    </g>
</svg>
