<?xml version="1.0" encoding="UTF-8" standalone="no"?>
<!DOCTYPE svg PUBLIC "-//W3C//DTD SVG 1.1//EN" "http://www.w3.org/Graphics/SVG/1.1/DTD/svg11.dtd">
<svg width="30" height="30" viewBox="0 0 135 332" version="1.1" xmlns="http://www.w3.org/2000/svg" xmlns:xlink="http://www.w3.org/1999/xlink" xml:space="preserve" xmlns:serif="http://www.serif.com/" style="fill-rule:evenodd;clip-rule:evenodd;stroke-linecap:round;stroke-linejoin:round;stroke-miterlimit:1.5;">
    <g transform="matrix(1,0,0,1,-2185.37,-441.939)">
        <g transform="matrix(2.12243,0,0,2.12243,-1532.23,-3685.95)">
            <path d="M1787.95,2100.14C1784.67,2099.62 1756.7,2095.25 1753.05,2077.71C1745.12,2039.66 1837.11,2028 1775.03,1998.59C1763.35,1993.06 1767.44,1988.76 1772.59,1983.94C1783.31,1973.89 1783.42,1970.56 1772.59,1960.5" style="fill:none;stroke:rgb(0,100,0);stroke-opacity:0.46;stroke-width:1.96px;"/>
        </g>
        <g transform="matrix(2.12243,0,0,2.12243,-1532.23,-3685.95)">
            <path d="M1768.03,2093.25C1769.11,2080.15 1780.6,2069.13 1782.75,2066.68C1788.12,2078.73 1777.54,2083.74 1768.03,2093.25Z" style="fill:rgb(0,100,0);fill-opacity:0.25;stroke:rgb(0,100,0);stroke-opacity:0.46;stroke-width:1.96px;"/>
        </g>
        <g transform="matrix(2.12243,0,0,2.12243,-1532.23,-3685.95)">
            <path d="M1767.72,2047.1C1773.66,2034.88 1763.1,2018.5 1761.74,2016.4C1753.95,2031.97 1770.35,2048.41 1767.72,2047.1Z" style="fill:rgb(0,100,0);fill-opacity:0.25;stroke:rgb(0,100,0);stroke-opacity:0.46;stroke-width:1.96px;"/>
        </g>
        <g transform="matrix(2.12243,0,0,2.12243,-1532.23,-3685.95)">
            <path d="M1797.09,2017.47C1798.73,2001.27 1811.8,1998.62 1813.75,1998.08C1806.13,2015.41 1800.9,2013.04 1797.09,2017.47Z" style="fill:rgb(0,100,0);fill-opacity:0.25;stroke:rgb(0,100,0);stroke-opacity:0.46;stroke-width:1.96px;"/>
        </g>
        <g transform="matrix(2.12243,0,0,2.12243,-1532.23,-3685.95)">
            <path d="M1767.56,1991.34C1767.91,1979.78 1758.23,1979.16 1756.94,1979.07C1758.63,1984.68 1759.87,1987.79 1763.19,1988.64C1767.69,1989.8 1767.03,1991.34 1767.56,1991.34Z" style="fill:rgb(0,100,0);fill-opacity:0.25;stroke:rgb(0,100,0);stroke-opacity:0.46;stroke-width:1.96px;"/>
        </g>
        <g transform="matrix(2.12243,0,0,2.12243,-1532.23,-3685.95)">
            <path d="M1775.79,1981C1778.89,1976.37 1791.28,1976.02 1792.72,1975.81C1788.27,1980 1788.63,1980.51 1782.74,1982.12C1777.88,1983.44 1775.79,1980.98 1775.79,1981Z" style="fill:rgb(0,100,0);fill-opacity:0.25;stroke:rgb(0,100,0);stroke-opacity:0.46;stroke-width:1.96px;"/>
        </g>
        <g transform="matrix(2.12243,0,0,2.12243,-1532.23,-3685.95)">
            <path d="M1779.03,1968.31C1772.32,1964.15 1771.09,1964.75 1763.19,1965.62C1764.11,1966.44 1774.63,1974.9 1779.03,1968.31Z" style="fill:rgb(0,100,0);fill-opacity:0.25;stroke:rgb(0,100,0);stroke-opacity:0.46;stroke-width:1.96px;"/>
        </g>
        <g transform="matrix(2.12243,0,0,2.12243,-1535.41,-3688.25)">
            <path d="M1774.03,1961.42C1770.07,1958.65 1772.83,1952.69 1773.31,1946.95C1773.82,1947.7 1777.56,1953.19 1775.88,1957.9C1774.92,1960.58 1773.57,1960.96 1774.03,1961.42Z" style="fill:rgb(0,100,0);fill-opacity:0.25;stroke:rgb(0,100,0);stroke-opacity:0.46;stroke-width:1.96px;"/>
        </g>
    </g>
</svg>
