<?xml version="1.0" encoding="UTF-8" standalone="no"?>
<!DOCTYPE svg PUBLIC "-//W3C//DTD SVG 1.1//EN" "http://www.w3.org/Graphics/SVG/1.1/DTD/svg11.dtd">
<svg width="30" height="30" x="0" y="0" viewBox="0 0 779 795" version="1.1" xmlns="http://www.w3.org/2000/svg" xmlns:xlink="http://www.w3.org/1999/xlink" xml:space="preserve" xmlns:serif="http://www.serif.com/" style="fill-rule:evenodd;clip-rule:evenodd;stroke-linejoin:round;stroke-miterlimit:2;">
    <g transform="matrix(1,0,0,1,-319.219,-334.962)">
        <g transform="matrix(1,0,0,1,-115.993,-118.773)">
            <path d="M850.394,519.685C871.25,456.084 931.29,497.808 935.314,505.856C962.358,559.944 971.878,550.629 1031.3,553.509C1032.64,555.386 1025.82,571.009 1093.35,602.169L1094.07,645.049C1124.42,656.359 1142.79,644.372 1136.14,677.618C1127.32,721.741 1176.6,758.89 1182.85,763.603C1182.5,764.937 1146.73,796.553 1175.78,854.665C1187.23,877.567 1164.94,966.73 1162.57,976.22C1158.28,993.364 1183.36,1064.05 1121.49,1062.91C1108.37,1109.22 1117.69,1128.23 1075.37,1124.2C961.312,1113.34 1010.19,1187.06 968.504,1181.1C934.431,1176.24 915.582,1213.62 879.822,1216.69C818.032,1221.98 807.443,1177.33 779.528,1204.72C758.65,1225.21 690.353,1178.64 685.039,1157.48C672.066,1105.83 634.007,1154.66 590.551,1121.15L566.929,1062.99C508.108,1031.08 486.459,1050.27 494.017,997.36C499.507,958.933 459.303,968.602 467.592,931.297C475.441,895.98 479.291,898.422 475.357,861.048L503.146,826.558C491.873,777.556 478.185,769.209 520.442,741.038C550.031,721.312 466.289,652.682 543.307,614.173C581.804,594.925 591.111,619.461 626.753,590.551C626.753,587.953 637.656,460.913 667.88,543.988L706.958,526.335C763.884,573.992 749.949,513.913 758.267,511.14C796.991,498.232 794.267,522.063 850.394,519.685Z" style="fill:rgb(0,100,0);fill-opacity:0.18;"/>
            <path d="M463.907,990.736C457.979,984.896 437.129,972.133 435.913,943.27C435.509,933.672 437.261,926.107 439.969,915.036C445.476,892.524 447.17,892.334 445.976,875.528C445.592,870.134 444.951,864.267 444.948,864.202C444.875,862.612 444.744,861.018 444.828,859.429C444.888,858.294 445.216,852.137 448.857,845.807C449.991,843.837 451.316,842.167 451.553,841.868C461.148,829.78 464.184,826.218 469.801,819.301C465.85,804.64 462.768,795.708 461.577,784.701C458.189,753.393 476.428,735.137 494.886,721.666C491.221,710.56 482.942,692.426 480.203,673.293C474.128,630.843 497.346,601.424 534.281,584.736C565.685,570.546 585.312,577.579 594.546,574.819C595.636,574.492 596.756,574.025 597.865,573.474C599.189,562.446 601.333,548.375 604.264,536.094C608.993,516.278 616.507,496.265 634.718,488.4C647.648,482.816 667.377,483.622 682.19,504.387C687.771,501.862 693.366,499.369 699.021,497.014C700.514,496.392 702.182,496.293 703.791,496.124C704.939,496.004 711.179,495.35 718.091,498.073C719.595,498.666 721.057,499.382 722.448,500.207C724.816,501.611 725.269,502.081 727.556,503.964C729.245,499.054 731.921,494.086 736.448,489.745C742.406,484.029 748.467,482.365 752.081,481.266C787.614,470.454 803.722,482.776 820.815,487.132C823.321,487.77 826.357,488.397 830.153,488.851C837.413,476.744 849.502,463.06 869.143,456.881C906.895,445.005 946.129,469.815 958.386,484.559C962.173,489.115 962.964,491.589 966.595,498.461C966.722,498.702 975.346,515.499 980.64,518.994C985.276,522.054 1005.58,521.117 1031.35,522.309C1034.53,522.457 1034.55,522.349 1037.67,523.001C1038.82,523.241 1045.07,524.547 1050.95,529.315C1052.22,530.354 1053.42,531.497 1054.52,532.725C1055.62,533.952 1056.54,535.329 1057.52,536.657C1057.71,536.918 1060.35,540.786 1061.76,546.61C1061.82,546.862 1061.88,547.129 1061.93,547.404C1065.06,550.609 1075.51,559.566 1105.66,573.556C1108.3,574.783 1108.34,574.723 1110.76,576.354C1111.74,577.017 1117.08,580.618 1120.72,587.32C1121.51,588.778 1122.18,590.306 1122.73,591.872C1123.93,595.299 1123.98,596.29 1124,596.688C1124.55,608.492 1124.58,614.475 1124.59,620.385C1130.16,621.269 1135.61,622.221 1141.57,624.608C1146.59,626.617 1170.56,636.804 1168.47,670.45C1167.92,679.218 1166.31,683.543 1166.19,687.647C1165.71,705.108 1184.85,726.137 1200.92,738.328C1203.18,740.044 1203.23,739.994 1205.2,742.037C1206,742.866 1210.34,747.362 1212.52,754.431C1212.86,755.532 1214.71,761.501 1213.47,768.796C1213.2,770.385 1212.71,771.931 1212.29,773.488C1210.88,778.686 1206.63,783.646 1205.98,784.413C1202.2,788.825 1186.01,805.269 1203.27,840.266C1206.98,847.799 1211.39,859.432 1209.65,887.249C1207.41,923.218 1195.94,970.326 1193.02,982.14C1193.01,992.804 1198.55,1020.64 1191.41,1045.63C1184.86,1068.58 1170.63,1079.51 1161.81,1084.53C1156.7,1087.44 1151.51,1089.45 1146.56,1090.84C1144.88,1099.02 1143.88,1105.35 1141.83,1112.97C1139.57,1121.35 1132.67,1145.79 1104.52,1153.34C1089.58,1157.36 1074.76,1154.99 1065.05,1154.37C1041.74,1152.89 1029.01,1156.07 1025.03,1160.03C1019.52,1166.29 1019.71,1185.74 1004.84,1200.01C987.711,1216.45 965.621,1211.7 963.11,1211.54C951.441,1210.76 933.008,1231.89 905.913,1242.03C896.415,1245.59 886.237,1247.89 870.24,1247.94C854.263,1247.99 841.058,1245.32 830.13,1241.75C816.522,1237.31 806.041,1231.29 799.546,1228.11C797.162,1230.24 793.597,1233.09 788.237,1235.62C763.228,1247.44 733.143,1235.98 711.665,1223.69C709.871,1222.67 666.112,1198.27 656.154,1168.14C655.585,1166.42 655.146,1164.57 654.645,1162.86C644.684,1163.59 626.167,1167.14 605.432,1161.97C591.254,1158.43 580.387,1151.95 572.533,1146.01C570.359,1144.36 569.119,1143.12 568.845,1142.85C568.156,1142.16 564.499,1138.5 562.118,1132.7C555.62,1116.87 549.28,1100.98 542.84,1085.13C525.182,1076.64 513.779,1074.1 501.061,1069.37C487.573,1064.35 463.598,1053.42 462.021,1018.34C461.451,1005.64 463.834,993.52 463.906,990.764C463.907,990.754 463.907,990.745 463.907,990.736ZM879.175,529.189C877.276,532.098 876.152,535.467 874.254,538.376C873.301,539.836 871.98,541.033 870.685,542.2C864.715,547.58 858.078,549.031 856.864,549.296C853.565,550.017 853.546,549.905 850.171,550.027C811.102,551.435 793.722,541.597 782.561,538.316C780.201,548.048 775.466,559.479 764.489,567.362C758.179,571.894 743.278,579.767 721.128,571.172C714.685,568.671 708.47,565.089 703.016,561.436C695.485,564.876 687.962,568.335 680.389,571.68C678.868,572.352 677.296,572.927 675.689,573.354C668.298,575.32 662.011,573.827 660.857,573.553C660.317,573.425 659.791,573.285 659.277,573.135C658.342,579.761 657.608,586.33 657.148,592.016L656.979,592.007C656.177,595.154 656.028,598.462 655.116,601.583C654.623,603.27 653.696,604.81 652.786,606.314C651.875,607.817 650.83,609.247 649.674,610.571C648.893,611.465 646.49,614.216 638.231,620.015C606.409,642.36 584.762,634.599 570.505,636.766C561.242,638.174 550.645,644.376 545.96,648.461C540.736,653.015 539.756,656.659 540.367,662.997C541.86,678.49 554.153,699.579 556.954,719.351C561.549,751.789 539.218,765.185 536.508,767.01C535.322,767.81 525.913,774.149 522.328,778.288C523.106,785.065 528.113,799.145 532.635,818.463C533.302,821.31 533.388,821.299 533.613,824.212C534.154,831.234 531.971,836.763 531.568,837.785C531.003,839.214 530.488,840.712 529.556,841.933C522.208,851.557 514.461,860.87 506.908,870.334C508.065,885.296 507.778,896.004 504.273,910.57C502.991,915.898 501.278,921.908 499.413,929.556C498.176,934.631 497.601,937.21 497.328,938.653C505.865,946.205 529.806,962.585 524.348,1001.61C524.125,1003.21 523.435,1008.04 523.247,1012.24C533.487,1015.91 554.208,1021.32 580.78,1035.62C583.478,1037.07 583.518,1037.02 585.923,1038.91C587.305,1040 588.597,1041.21 589.772,1042.53C592.368,1045.42 592.776,1046.36 592.945,1046.75C605.061,1074.56 605.474,1077.95 615.056,1100.48C621.498,1103.68 627.939,1103.81 639.737,1102.6C652.9,1101.26 674.527,1097.94 693.04,1112.64C706.91,1123.65 712.028,1139.61 714.278,1147.86C720.279,1156.26 740.897,1172.06 758.305,1177.65C760.024,1178.2 761.371,1178.53 762.4,1178.73C772.176,1170.44 790.728,1158.9 817.373,1168.78C836.579,1175.91 847.572,1188.51 877.176,1185.99C898.386,1184.18 920.987,1149.97 962.176,1149.82C962.215,1149.82 962.254,1149.82 962.292,1149.82C968,1131.86 981.426,1099.21 1034.96,1093.21C1056.8,1090.77 1077.17,1093.52 1082.82,1093.76C1082.84,1093.76 1082.86,1093.76 1082.88,1093.77C1084.72,1085.57 1086.86,1071.97 1091.38,1055.69C1092.23,1052.67 1092.14,1052.63 1093.47,1049.79C1099.18,1037.61 1110.11,1034.08 1111.99,1033.47C1113.6,1032.95 1115.26,1032.56 1116.93,1032.32C1120.61,1031.77 1120.63,1032.08 1124.35,1031.97C1128.64,1031.83 1130.38,1031.14 1131.03,1030.83C1132,1029.17 1133.26,1024.38 1133.12,1015.15C1132.86,998.084 1129.07,982.684 1132.48,968.849C1148.5,903.788 1148.9,875.152 1147.47,867.391C1142.26,856.677 1129.66,829.174 1134.43,796.212C1135.95,785.744 1138.92,776.745 1142.31,769.275C1123.68,750.265 1100.82,718.78 1104.36,680.403C1104.37,680.286 1104.38,680.169 1104.39,680.054C1098.48,678.917 1091.41,677.225 1083.68,674.387C1080.97,673.39 1080.95,673.416 1078.45,671.964C1077,671.124 1068.85,666.391 1064.94,655.999C1064.32,654.337 1063.59,652.644 1063.5,650.871C1063.01,641.224 1062.94,631.559 1062.79,621.898C1039.3,609.794 1021.76,597.665 1011.34,584.037C991.922,583.582 979.65,583.631 966.537,580.096C937.201,572.189 922.758,549.601 909.566,524.054C902.934,519.105 892.203,514.934 887.625,516.569C887.403,516.677 885.922,517.265 883.704,521.041C881.605,524.613 880.203,529.078 880.068,529.483L879.175,529.189Z" style="fill:rgb(0,100,0);fill-opacity:0.4;"/>
        </g>
    </g>
</svg>
