<?xml version="1.0" encoding="UTF-8" standalone="no"?>
<!DOCTYPE svg PUBLIC "-//W3C//DTD SVG 1.1//EN" "http://www.w3.org/Graphics/SVG/1.1/DTD/svg11.dtd">
<svg width="30" height="30" viewBox="0 0 269 241" version="1.1" xmlns="http://www.w3.org/2000/svg" xmlns:xlink="http://www.w3.org/1999/xlink" xml:space="preserve" xmlns:serif="http://www.serif.com/" style="fill-rule:evenodd;clip-rule:evenodd;stroke-linecap:round;stroke-linejoin:round;stroke-miterlimit:1.5;">
    <g transform="matrix(1,0,0,1,-2142.95,-953.958)">
        <g transform="matrix(0.843923,0,0,0.843923,395.994,-319.811)">
            <g transform="matrix(0.758005,0,0,0.714265,501.538,511.957)">
                <path d="M2275.72,1569.68C2277.09,1555.04 2264.1,1460.2 2393.49,1399.84C2384.01,1515.74 2330.51,1514.89 2275.72,1569.68Z" style="fill:rgb(128,128,252);fill-opacity:0.45;stroke:rgb(128,128,252);stroke-opacity:0.64;stroke-width:6.7px;"/>
            </g>
            <g transform="matrix(0.758005,0,0,0.714265,501.538,511.957)">
                <path d="M2275.39,1570.28C2209.84,1546.64 2095.26,1595.08 2076.06,1614.28C2050.32,1640.02 2169.62,1676.05 2275.39,1570.28Z" style="fill:rgb(128,128,252);fill-opacity:0.45;stroke:rgb(128,128,252);stroke-opacity:0.64;stroke-width:6.7px;"/>
            </g>
            <g transform="matrix(0.758005,0,0,0.714265,501.538,511.957)">
                <path d="M2275.72,1570.28C2274.89,1570.41 2229.61,1637.93 2225.99,1677.72C2219.7,1746.93 2222.37,1757.52 2256.2,1791.72C2263.61,1776.9 2327.59,1655.56 2286.95,1586.76C2283.6,1581.07 2280.59,1575.15 2275.72,1570.28Z" style="fill:rgb(128,128,252);fill-opacity:0.45;stroke:rgb(128,128,252);stroke-opacity:0.64;stroke-width:6.7px;"/>
            </g>
            <g transform="matrix(0.758005,0,0,0.714265,501.538,511.957)">
                <path d="M2274.68,1569.95C2281.75,1565.81 2279.39,1572.36 2338.43,1556.62C2430.11,1532.17 2479.09,1612.05 2485.85,1623.07C2388.84,1598.56 2364.28,1614.75 2274.68,1569.95Z" style="fill:rgb(128,128,252);fill-opacity:0.45;stroke:rgb(128,128,252);stroke-opacity:0.64;stroke-width:6.7px;"/>
            </g>
            <g transform="matrix(0.758005,0,0,0.714265,501.538,511.957)">
                <path d="M2274.8,1569.92C2175.6,1540.33 2143.6,1433.32 2142.68,1417.57C2153.66,1421.72 2225.43,1448.81 2256.26,1510.49C2270.44,1538.84 2277.99,1550.79 2274.8,1569.92Z" style="fill:rgb(128,128,252);fill-opacity:0.45;stroke:rgb(128,128,252);stroke-opacity:0.64;stroke-width:6.7px;"/>
            </g>
            <g transform="matrix(0.758005,0,0,0.714265,501.538,511.957)">
                <path d="M2275.72,1570.87C2275.46,1579.49 2269.88,1667.13 2262.03,1690.69C2249.08,1729.54 2249.97,1726.1 2253.39,1767.22" style="fill:rgb(128,128,252);fill-opacity:0.45;stroke:rgb(128,128,252);stroke-opacity:0.64;stroke-width:6.7px;"/>
            </g>
            <g transform="matrix(0.758005,0,0,0.714265,501.538,511.957)">
                <path d="M2275.72,1568.15C2301.14,1487.87 2340.76,1491.41 2378.8,1415.34" style="fill:rgb(128,128,252);fill-opacity:0.45;stroke:rgb(128,128,252);stroke-opacity:0.64;stroke-width:6.7px;"/>
            </g>
            <g transform="matrix(0.758005,0,0,0.714265,501.538,511.957)">
                <path d="M2275.39,1569.68C2264.79,1564.46 2169.47,1434.94 2153.91,1429.76" style="fill:rgb(128,128,252);fill-opacity:0.45;stroke:rgb(128,128,252);stroke-opacity:0.64;stroke-width:6.7px;"/>
            </g>
            <g transform="matrix(0.758005,0,0,0.714265,501.538,511.957)">
                <path d="M2275.72,1569.92C2244.6,1575.34 2246.57,1569.36 2165.44,1605.63C2129.24,1621.82 2107.24,1617.64 2094.8,1620.05" style="fill:rgb(128,128,252);fill-opacity:0.45;stroke:rgb(128,128,252);stroke-opacity:0.64;stroke-width:6.7px;"/>
            </g>
            <g transform="matrix(0.758005,0,0,0.714265,501.538,511.957)">
                <path d="M2275.72,1569.92C2302.2,1570.97 2366.97,1568.03 2389.68,1578.11C2420.11,1591.63 2450.48,1608.25 2468.5,1611.85" style="fill:rgb(128,128,252);fill-opacity:0.45;stroke:rgb(128,128,252);stroke-opacity:0.64;stroke-width:6.7px;"/>
            </g>
        </g>
    </g>
</svg>
