<?xml version="1.0" encoding="UTF-8" standalone="no"?>
<!DOCTYPE svg PUBLIC "-//W3C//DTD SVG 1.1//EN" "http://www.w3.org/Graphics/SVG/1.1/DTD/svg11.dtd">
<svg width="30" height="30" viewBox="0 0 132 120" version="1.1" xmlns="http://www.w3.org/2000/svg" xmlns:xlink="http://www.w3.org/1999/xlink" xml:space="preserve" xmlns:serif="http://www.serif.com/" style="fill-rule:evenodd;clip-rule:evenodd;stroke-linecap:round;stroke-linejoin:round;stroke-miterlimit:1.5;">
    <g transform="matrix(1,0,0,1,-2201.92,-1769.57)">
        <g transform="matrix(1,0,0,1,-73.0183,-110.062)">
            <path d="M2325.98,1932.76C2318.61,1948.75 2286.16,1986.42 2336.81,1996.55C2336.84,1996.56 2385.71,2001.12 2368.64,1958.47C2361.9,1941.61 2368.77,1939.26 2362.96,1933.45" style="fill:rgb(175,185,194);fill-opacity:0.6;stroke:rgb(109,110,112);stroke-opacity:0.65;stroke-width:4.17px;"/>
        </g>
        <g transform="matrix(1,0,0,1,-73.6194,-107.392)">
            <path d="M2278.63,1931.56C2277.92,1931.92 2269.08,1896.52 2320.33,1885.14C2358.74,1876.6 2390.93,1869.13 2403.89,1920.95C2406.13,1929.9 2405.87,1933.17 2396.5,1932.32" style="fill:rgb(175,185,194);fill-opacity:0.6;stroke:rgb(109,110,112);stroke-opacity:0.65;stroke-width:4.17px;"/>
        </g>
        <g transform="matrix(1,0,0,1,-73.6194,-107.392)">
            <path d="M2280.89,1933.21C2279.99,1933.83 2290.86,1926.37 2293.61,1928.34C2303.52,1935.42 2304.05,1930.35 2310.1,1926.63C2311.32,1925.88 2310.05,1935.02 2327.77,1929.5C2337.17,1936.1 2337.52,1930.83 2341.36,1928.91C2344.75,1927.21 2343.93,1929.21 2346.48,1931.75C2351.51,1936.78 2351.85,1932.37 2357.93,1928.58C2366.43,1933.73 2366.61,1930.56 2371.94,1927.51C2379.46,1933.74 2380.11,1931.48 2387.59,1928.84C2390.94,1930 2394.29,1931.16 2397.64,1932.32" style="fill:none;stroke:rgb(109,110,112);stroke-opacity:0.65;stroke-width:4.17px;"/>
        </g>
    </g>
</svg>
