<?xml version="1.0" encoding="UTF-8" standalone="no"?>
<!DOCTYPE svg PUBLIC "-//W3C//DTD SVG 1.1//EN" "http://www.w3.org/Graphics/SVG/1.1/DTD/svg11.dtd">
<svg width="100%" height="100%" viewBox="0 0 273 108" version="1.1" xmlns="http://www.w3.org/2000/svg" xmlns:xlink="http://www.w3.org/1999/xlink" xml:space="preserve" xmlns:serif="http://www.serif.com/" style="fill-rule:evenodd;clip-rule:evenodd;stroke-linecap:round;stroke-linejoin:round;stroke-miterlimit:1.5;">
    <g transform="matrix(1,0,0,1,-2107.94,-1430.07)">
        <g transform="matrix(2.97835,0,0,1.8615,-5893.79,-1505.73)">
            <path d="M2697.12,1611.47C2713.37,1595.23 2721.55,1584.4 2729.83,1605.93C2736.89,1624.3 2763.21,1612.81 2767.57,1608.45" style="fill:none;stroke:rgb(178,212,236);stroke-width:25.17px;"/>
        </g>
        <g transform="matrix(1,0,0,1,-426.612,-157.528)">
            <path d="M2667.01,1643.94C2662.5,1638.24 2663.84,1619.46 2663.91,1617.51C2664.44,1603.83 2679.02,1593.73 2681.02,1592.35C2680.43,1612.45 2675.8,1626.36 2667.01,1643.94C2666.12,1645.73 2676.72,1632.65 2692.59,1631.6C2694.59,1631.46 2709.1,1630.5 2716.75,1638.14C2722.04,1643.43 2685.57,1652.08 2667.01,1643.94C2689.93,1658.82 2695.2,1656.08 2703.97,1681.62C2676.61,1675.11 2675.06,1668.54 2666.93,1644.17C2668,1651.27 2677.39,1674.6 2655.36,1693.49C2655.11,1688.15 2648.89,1672.96 2667.01,1643.94C2640.09,1683.67 2627.2,1677.4 2621.85,1677.42C2633.47,1654.35 2643.22,1651.36 2666.94,1644.24C2625.19,1658.16 2617.95,1646.83 2607.68,1638.85C2631.43,1631.24 2641,1628.65 2666.87,1644.17C2659.9,1638.38 2629.66,1630.69 2627.61,1605.29C2659.42,1609.79 2666.44,1636.04 2667.01,1643.94Z" style="fill:rgb(237,4,120);fill-opacity:0.27;stroke:rgb(237,4,120);stroke-opacity:0.26;stroke-width:4.17px;"/>
        </g>
    </g>
</svg>
