<?xml version="1.0" encoding="UTF-8" standalone="no"?>
<!DOCTYPE svg PUBLIC "-//W3C//DTD SVG 1.1//EN" "http://www.w3.org/Graphics/SVG/1.1/DTD/svg11.dtd">
<svg width="30" height="30" viewBox="0 0 235 159" version="1.1" xmlns="http://www.w3.org/2000/svg" xmlns:xlink="http://www.w3.org/1999/xlink" xml:space="preserve" xmlns:serif="http://www.serif.com/" style="fill-rule:evenodd;clip-rule:evenodd;stroke-linecap:round;stroke-linejoin:round;stroke-miterlimit:1.5;">
    <g transform="matrix(1,0,0,1,-2121.82,-1404.99)">
        <g transform="matrix(1,0,0,1,-426.612,-157.528)">
            <path d="M2667.01,1643.94C2662.5,1638.24 2663.84,1619.46 2663.91,1617.51C2664.44,1603.83 2679.02,1593.73 2681.02,1592.35C2680.43,1612.45 2675.8,1626.36 2667.01,1643.94C2666.12,1645.73 2676.72,1632.65 2692.59,1631.6C2694.59,1631.46 2709.1,1630.5 2716.75,1638.14C2722.04,1643.43 2685.57,1652.08 2667.01,1643.94C2689.93,1658.82 2695.2,1656.08 2703.97,1681.62C2676.61,1675.11 2675.06,1668.54 2666.93,1644.17C2668,1651.27 2677.39,1674.6 2655.36,1693.49C2655.11,1688.15 2648.89,1672.96 2667.01,1643.94C2640.09,1683.67 2627.2,1677.4 2621.85,1677.42C2633.47,1654.35 2643.22,1651.36 2666.94,1644.24C2625.19,1658.16 2617.95,1646.83 2607.68,1638.85C2631.43,1631.24 2641,1628.65 2666.87,1644.17C2659.9,1638.38 2629.66,1630.69 2627.61,1605.29C2659.42,1609.79 2666.44,1636.04 2667.01,1643.94Z" style="fill:rgb(227,125,229);fill-opacity:0.34;stroke:rgb(250,0,255);stroke-opacity:0.64;stroke-width:3.96px;"/>
        </g>
        <g transform="matrix(1,0,0,1,-426.612,-157.528)">
            <path d="M2697.12,1611.47C2713.37,1595.23 2721.55,1584.4 2729.83,1605.93C2736.89,1624.3 2763.21,1612.81 2767.57,1608.45" style="fill:none;stroke:rgb(142,162,239);stroke-opacity:0.64;stroke-width:8.33px;"/>
        </g>
        <g transform="matrix(1,0,0,1,-426.612,-157.528)">
            <path d="M2712.22,1664.3C2714.6,1661.12 2740.03,1639.12 2744.42,1657.76C2746.67,1667.32 2751.33,1677.98 2778.64,1659.77" style="fill:none;stroke:rgb(142,162,239);stroke-opacity:0.64;stroke-width:8.33px;"/>
        </g>
        <g transform="matrix(1,0,0,1,-426.612,-157.528)">
            <path d="M2660.18,1716.58C2661.24,1704.26 2679.57,1700.32 2687.06,1705.56C2705.2,1718.26 2707.81,1718.28 2726.31,1705.56" style="fill:none;stroke:rgb(142,162,239);stroke-opacity:0.64;stroke-width:8.33px;"/>
        </g>
        <g transform="matrix(1,0,0,1,-436.793,-151.841)">
            <path d="M2562.78,1686.44C2563.55,1684.12 2578.85,1661.64 2590.45,1677.89C2602.94,1695.37 2623.69,1683.35 2626.18,1681.91" style="fill:none;stroke:rgb(142,162,239);stroke-opacity:0.64;stroke-width:8.33px;"/>
        </g>
        <g transform="matrix(1,0,0,1,-426.612,-157.528)">
            <path d="M2565.88,1623.19C2566.59,1622.62 2583.98,1597.78 2593.47,1609.46C2604.69,1623.26 2608.16,1627.98 2620.64,1615.49" style="fill:none;stroke:rgb(142,162,239);stroke-opacity:0.64;stroke-width:8.33px;"/>
        </g>
        <g transform="matrix(1,0,0,1,-426.612,-157.528)">
            <path d="M2613.66,1583.61C2614.79,1581.48 2644.29,1560.95 2651.33,1568.7C2653.07,1570.61 2669.48,1595.32 2688.57,1566.69" style="fill:none;stroke:rgb(142,162,239);stroke-opacity:0.64;stroke-width:8.33px;"/>
        </g>
    </g>
</svg>
