<?xml version="1.0" encoding="UTF-8" standalone="no"?>
<svg
   id="baseLayer"
   data-name="Base Layer"
   version="1.1"
   width="640px"
   height="320px"
   xmlns="http://www.w3.org/2000/svg">
  <defs
     id="defs1">
    <style
       id="style1">
      .cls-1 {
        fill-rule: evenodd;
      }

      .cls-1, .cls-2 {
        fill: #26231e;
        stroke-width: 0px;
      }
    </style>
  </defs>
  <g id="backgroundLayer">
    <polygon points="1,1 639,1 639,319 1,319" fill="none" stroke="red" stroke-width="1" stroke-opacity=".4" />
    <circle cx="320" cy="12" r="5" />
    <circle cx="320" cy="308" r="5" />
  </g>
  <g id="textLayer"><!-- --></g>
  <g id="qrLayer"><!-- --></g>
  <g
     id="logoLayer"
     transform="matrix(1.2759444,0,0,1.2750365,-4.724205,-2.6783597)">
    <path
       class="cls-2"
       d="m 49.72,220.93 c 0,-10.51 -4.58,-17.42 -13.67,-17.42 -4.58,0 -7.96,1.73 -9.69,4.21 h -0.08 c 0.3,-2.03 0.53,-5.26 0.53,-7.73 V 183.17 H 13.14 v 57.44 c 4.73,1.43 9.61,2.1 15.39,2.1 14.04,0 21.18,-9.91 21.18,-21.78 v 0 z m -14.42,1.43 c 0,7.21 -2.7,9.39 -5.86,9.39 -1.28,0 -2.03,-0.08 -2.63,-0.3 v -7.88 c 0,-5.78 2.33,-8.64 4.81,-8.64 2.48,0 3.68,2.03 3.68,7.43 z"
       id="path1" />
    <path
       class="cls-2"
       d="m 122.56,229.72 c 0,-11.41 -12.31,-11.34 -12.31,-14.34 0,-1.13 0.9,-1.73 2.78,-1.73 2.1,0 4.36,0.23 6.16,0.75 l 0.3,-10.51 c -2.03,-0.23 -4.21,-0.45 -6.23,-0.45 -11.71,0 -17.27,6.08 -17.27,12.99 0,12.09 12.01,10.21 12.01,14.27 0,1.13 -0.98,1.65 -3,1.65 -2.7,0 -5.48,-0.53 -7.66,-1.13 l -0.3,10.81 c 2.48,0.23 5.11,0.6 7.73,0.6 10.66,0 17.8,-4.81 17.8,-12.92 v 0 z"
       id="path2" />
    <path
       class="cls-1"
       d="m 93.05,221.64 c -0.18,-0.56 0.13,-1.55 -0.21,-2.01 -0.52,-0.7 -0.85,-3.28 -1.13,-4.16 -0.38,-1.19 -1.63,-4.01 -2.56,-4.68 -0.64,-0.46 -1.43,-1.21 -1.93,-1.88 -0.33,-0.44 -0.64,-1.33 -1.19,-1.72 -1.06,-0.76 -1.97,-1.63 -3.19,-2.38 -1.91,-1.18 -2.51,-0.95 -3.75,-2.61 -0.4,-0.53 -0.51,-2.06 -0.86,-2.3 -0.35,-0.24 -0.99,0.69 -1.24,0.84 -0.69,0.41 -1.51,0.82 -2.25,0.99 -0.72,0.16 -2.57,0.08 -3.03,0.35 -0.32,0.19 -3.04,1.04 -3.54,1.15 -0.93,0.21 -1.8,0.86 -2.77,1.07 -1.36,0.31 -2.8,1.19 -3.93,1.86 -0.52,0.31 -0.82,0.92 -1.34,1.23 -0.84,0.5 -1.99,1.89 -2.53,2.75 -0.53,0.84 -1.41,1.53 -1.92,2.35 -1.14,1.8 -1.65,3.78 -2.1,5.86 -0.12,0.24 -0.1,0.15 -0.12,0.24 -0.09,0.42 0,0.92 -0.09,1.33 -0.11,0.51 -0.32,2.94 -0.19,3.37 0.6,1.9 0.12,7.94 1.12,9.26 0.95,1.27 0.83,2.46 1.58,3.47 0.68,0.91 1.81,1.78 2.5,2.7 0.57,0.76 1.79,1.27 2.35,2.01 0.35,0.47 1.54,0.55 1.91,1.05 0.6,0.8 5.86,-0.06 6.92,0.69 2.08,1.48 6.59,1.79 8.34,0.81 0.67,-0.38 1.22,-0.94 1.94,-1.34 3.38,-1.9 7.62,-4.69 9.83,-8.09 0.88,-1.35 1.15,-2.97 1.9,-4.36 0.16,-0.3 0.06,-0.71 0.22,-1 0.48,-0.89 1.25,-2.87 0.94,-3.86 -0.22,-0.71 0.62,-2.14 0.35,-2.98 z m -8.3,0.06 c 0.77,0.62 0.84,1.95 0.86,2.86 0.04,1.76 -1.58,2.82 -2.65,3.89 -0.25,0.25 -0.68,0.25 -0.99,0.18 -0.16,-0.03 -0.46,-0.12 -0.46,-0.12 0,0 0.07,0.02 0.1,0.04 0.2,0.16 0.36,0.19 0.51,0.42 0.25,0.39 0.78,1.29 0.77,1.77 -0.04,1.8 -0.54,3.13 -2.06,4.14 -0.14,0.09 -0.34,0.31 -0.5,0.35 -0.97,0.27 -1.44,0.57 -2.38,0 -0.08,-0.05 -0.4,-0.31 -0.4,-0.31 0,0 0.08,0.29 0.11,0.41 0.09,0.36 0.15,1.1 -0.03,1.47 -0.66,1.35 -1.21,2.52 -2.82,2.96 -0.28,0.08 -1.02,0.19 -1.3,-0.04 -0.35,-0.28 -0.63,-0.67 -0.96,-1.02 -0.21,-0.22 -0.25,-0.68 -0.46,-0.85 -0.19,-0.16 -0.44,-0.46 -0.54,-0.7 -0.07,-0.19 -0.07,-0.39 -0.14,-0.57 -0.16,-0.41 -0.45,-0.8 -0.54,-1.18 -0.06,-0.25 -0.49,-0.46 -0.61,-0.65 -0.08,-0.13 -0.47,0.07 -0.54,0.12 -0.46,0.31 -0.88,0.72 -1.28,0.99 -0.19,0.13 -0.32,0.36 -0.49,0.53 -0.52,0.52 -1.05,1.02 -1.64,1.41 -0.43,0.29 -1.02,0.22 -1.5,0.28 -0.32,0.04 -0.73,-0.22 -0.99,-0.34 -1.13,-0.56 -1.29,-1.28 -1.89,-2.23 -0.13,-0.21 -0.06,-0.48 -0.17,-0.65 -0.08,-0.12 0.09,-0.3 0.05,-0.44 -0.09,-0.36 0.42,-1.27 0.56,-1.57 0.06,-0.11 0.04,-0.28 0.11,-0.39 0.01,-0.02 0.1,-0.14 0.1,-0.14 0,0 -0.07,0 -0.09,0 -0.38,-0.08 -0.88,0.23 -1.28,-0.02 -0.59,-0.35 -0.97,-0.63 -1.38,-1.29 -0.65,-1.02 -0.65,-3.96 0.13,-4.95 0.38,-0.49 0.84,-0.6 1.24,-1.11 0.08,-0.1 0.25,-0.2 0.32,-0.25 0.03,-0.02 0.14,-0.04 0.14,-0.04 0,0 -0.05,-0.03 -0.08,-0.04 -0.28,-0.06 -0.52,-0.23 -0.73,-0.4 -0.56,-0.45 -1.49,-1.84 -1.57,-2.6 -0.18,-1.8 1.13,-3.44 2.18,-4.48 0.19,-0.19 0.33,-0.44 0.55,-0.59 0.11,-0.07 0.27,-0.17 0.41,-0.19 0.02,0.02 -0.18,-0.15 -0.21,-0.2 -0.12,-0.19 -0.35,-0.53 -0.38,-0.81 -0.07,-0.72 0,-1.57 0.33,-2.25 0.34,-0.7 1.27,-2.08 2.1,-2.18 0.39,-0.05 0.88,-0.07 1.26,-0.17 0.05,-0.01 0.23,0.05 0.26,0 0.19,-0.25 0.09,-0.74 0.28,-0.99 0.78,-0.99 1.28,-2.3 2.67,-2.47 1.88,-0.23 3.11,2.98 3.46,4.4 0.08,0.31 -0.09,0.92 0.08,1.17 0.16,0.26 0.53,0.01 0.65,-0.14 0.15,-0.19 0.99,-1.25 1.25,-1.35 0.3,-0.13 0.78,-0.34 0.99,-0.48 0.13,-0.08 0.46,0.22 0.52,0.27 0.32,0.26 0.46,0.98 0.56,1.39 0.03,0.1 -0.15,1.05 0.07,0.99 0.48,-0.13 0.84,-1.04 1.22,-1.43 0.99,-0.98 2.19,-1.53 3.45,-1.88 0.39,-0.11 1.11,-0.26 1.5,0.06 0.97,0.78 1.47,2.09 1.51,3.47 0,0.29 -0.03,0.65 -0.22,0.89 -0.01,0.02 -0.1,0.08 -0.07,0.12 0,0.01 0.83,0.12 0.95,0.22 0.93,0.75 1.32,0.75 1.47,2.21 0.11,1.1 -0.74,2.09 -1.21,2.91 -0.16,0.27 -0.48,0.63 -0.73,0.8 -0.03,0.02 -0.39,0.18 -0.36,0.22 0.04,0.06 0.79,0.39 0.93,0.51 z"
       id="path3" />
    <path
       class="cls-1"
       d="m 67.52,230.78 c 0.13,-0.17 0.63,-0.8 0.79,-0.9 l 0.41,-0.16 h 0.36 c 0.53,0.12 0.87,0.64 0.76,1.17 -0.05,0.26 -0.2,0.47 -0.41,0.61 -0.11,0.15 -0.45,0.59 -0.53,0.68 -0.27,0.27 -0.99,0.58 -1.64,0.9 -0.14,0.07 -0.34,0.2 -0.44,0.27 -0.06,0.42 -0.4,0.78 -0.84,0.83 -0.54,0.07 -1.03,-0.31 -1.1,-0.84 v -0.44 c 0,0 0.13,-0.39 0.13,-0.39 0.12,-0.26 0.33,-0.51 0.62,-0.74 0.34,-0.26 0.83,-0.5 1.28,-0.7 0.22,-0.1 0.53,-0.26 0.61,-0.3 v 0 z"
       id="path4" />
    <path
       class="cls-1"
       d="m 66.64,223.07 c 0.06,0.16 0.18,0.46 0.19,0.52 0.22,0.66 0.28,1.35 0.35,2.04 0.06,0.55 -0.06,1.54 -0.36,2.04 -0.05,0.09 -0.21,0.33 -0.26,0.4 -0.17,0.44 -0.64,0.7 -1.12,0.6 -0.53,-0.12 -0.86,-0.64 -0.75,-1.16 0.03,-0.15 0.31,-0.62 0.43,-0.82 0.12,-0.21 0.12,-0.64 0.1,-0.86 -0.06,-0.55 -0.09,-1.1 -0.26,-1.63 -0.03,-0.1 -0.23,-0.55 -0.28,-0.81 l -0.04,-0.33 0.04,-0.26 0.1,-0.25 0.14,-0.19 0.17,-0.15 0.21,-0.11 c 0.5,-0.19 1.07,0.06 1.26,0.57 0.05,0.13 0.07,0.27 0.06,0.4 v 0 z"
       id="path5" />
    <path
       class="cls-1"
       d="m 69.3,222.2 0.18,-0.61 c 0,-0.19 0.05,-0.47 0.06,-0.57 -0.04,-0.25 -0.17,-0.52 -0.24,-0.78 -0.07,-0.12 -0.26,-0.48 -0.29,-0.66 l -0.02,-0.24 0.04,-0.28 c 0.14,-0.52 0.68,-0.83 1.2,-0.69 0.39,0.11 0.66,0.44 0.71,0.82 0.08,0.13 0.2,0.37 0.23,0.49 0.09,0.38 0.28,0.82 0.32,1.19 0.02,0.19 -0.05,0.58 -0.06,0.66 0,0.21 -0.05,0.57 -0.15,0.92 -0.11,0.39 -0.29,0.76 -0.41,0.9 -0.05,0.07 -0.15,0.18 -0.22,0.26 -0.07,0.11 -0.17,0.21 -0.28,0.28 l -0.35,0.15 -0.25,0.02 -0.28,-0.05 -0.3,-0.17 -0.24,-0.29 -0.08,-0.2 -0.04,-0.25 0.04,-0.29 0.1,-0.24 c 0,0 0.2,-0.24 0.33,-0.4 v 0 z"
       id="path6" />
    <path
       class="cls-1"
       d="m 65.88,217.05 0.37,-0.12 c 0.79,-0.84 1.26,-1.92 2.13,-2.7 0.53,-0.47 0.78,-0.69 1.44,-0.87 0.52,-0.14 1.06,0.16 1.2,0.68 0.14,0.52 -0.16,1.06 -0.68,1.2 -0.31,0.09 -0.41,0.22 -0.66,0.44 -0.87,0.78 -1.32,1.9 -2.15,2.72 l -0.32,0.23 c -0.2,0.11 -0.62,0.26 -0.94,0.34 l -0.45,0.06 -0.4,-0.07 -0.32,-0.19 -0.22,-0.27 -0.11,-0.29 v -0.28 c 0.03,-0.54 0.5,-0.94 1.04,-0.89 0.02,0 0.03,0 0.05,0 v 0 z"
       id="path7" />
    <path
       class="cls-1"
       d="m 80.99,219.87 c 0.09,0.07 0.46,0.37 0.62,0.5 0.42,0.34 0.48,0.96 0.14,1.38 -0.34,0.42 -0.96,0.48 -1.38,0.14 -0.25,-0.2 -0.63,-0.45 -0.87,-0.73 -0.11,-0.12 -0.2,-0.25 -0.27,-0.38 l -0.13,-0.35 c -0.12,-0.49 -0.19,-0.99 -0.3,-1.44 -0.08,-0.33 -0.04,-0.96 -0.05,-1.57 0,-0.14 -0.04,-0.35 -0.06,-0.48 -0.52,0.06 -1,-0.31 -1.08,-0.83 -0.08,-0.53 0.29,-1.03 0.83,-1.11 0.29,-0.04 0.53,-0.03 0.75,0 l 0.37,0.11 0.33,0.19 0.4,0.41 c 0.13,0.19 0.23,0.41 0.3,0.66 0.12,0.42 0.13,0.95 0.12,1.43 0,0.29 -0.04,0.55 0,0.71 0.11,0.43 0.17,0.9 0.28,1.36 z"
       id="path8" />
    <path
       class="cls-1"
       d="m 75.95,220.45 c 0.04,-0.07 0.09,-0.14 0.15,-0.2 l 0.29,-0.22 0.28,-0.09 h 0.24 c 0,0 0.22,0.03 0.22,0.03 l 0.2,0.09 0.19,0.14 0.21,0.3 0.09,0.36 -0.02,0.25 -0.1,0.27 c -0.04,0.07 -0.36,0.5 -0.51,0.65 -0.18,0.18 -0.23,0.42 -0.35,0.63 -0.21,0.36 -0.5,0.92 -0.49,1.36 0.03,0.1 0.13,0.37 0.14,0.48 v 0.42 c -0.13,0.53 -0.65,0.86 -1.18,0.75 -0.43,-0.09 -0.73,-0.46 -0.77,-0.88 -0.04,-0.12 -0.13,-0.4 -0.14,-0.52 -0.08,-0.8 0.35,-1.93 0.74,-2.6 0.21,-0.35 0.36,-0.73 0.66,-1.03 0.03,-0.03 0.09,-0.11 0.14,-0.17 v 0 z"
       id="path9" />
    <path
       class="cls-1"
       d="m 79.81,226.88 c -0.09,0.12 -0.31,0.42 -0.34,0.49 -0.16,0.34 -0.48,0.63 -0.71,0.92 -0.33,0.42 -0.46,1.18 -0.36,1.69 0.1,0.53 -0.25,1.04 -0.78,1.14 -0.53,0.1 -1.04,-0.25 -1.14,-0.78 -0.18,-0.99 0.11,-2.44 0.75,-3.25 0.15,-0.19 0.39,-0.35 0.49,-0.57 0.09,-0.18 0.54,-0.87 0.82,-1.13 l 0.19,-0.15 0.25,-0.12 0.28,-0.05 0.26,0.02 c 0.53,0.11 0.87,0.63 0.76,1.16 -0.06,0.28 -0.23,0.51 -0.46,0.64 v 0 z"
       id="path10" />
    <path
       class="cls-1"
       d="m 73.76,235.22 -0.06,-0.14 c -0.03,-0.09 -0.06,-0.26 -0.08,-0.34 -0.98,-0.83 -1.85,-2.18 -1.46,-3.58 0.15,-0.52 0.68,-0.82 1.2,-0.68 0.52,0.14 0.82,0.68 0.68,1.2 -0.07,0.27 0,0.52 0.13,0.75 0.19,0.34 0.48,0.63 0.75,0.85 l 0.32,0.34 0.24,0.51 c 0.04,0.14 0.1,0.41 0.1,0.41 l 0.11,0.27 0.04,0.38 -0.03,0.37 -0.13,0.32 -0.15,0.19 -0.22,0.16 -0.41,0.11 -0.3,-0.03 -0.25,-0.1 -0.19,-0.15 -0.14,-0.18 c -0.13,-0.2 -0.17,-0.44 -0.14,-0.66 v 0 z"
       id="path11" />
    <path
       class="cls-2"
       d="m 31.59,183.12 c 0.72,-0.04 1.41,-0.07 2.08,-0.09 0.68,-0.02 1.26,-0.04 1.75,-0.04 1.34,0 2.52,0.11 3.53,0.33 1.01,0.22 1.85,0.54 2.53,0.95 0.68,0.42 1.2,0.93 1.54,1.54 0.35,0.6 0.53,1.29 0.53,2.05 0,0.76 -0.18,1.43 -0.53,2.05 -0.34,0.61 -0.85,1.14 -1.54,1.58 0.46,0.88 0.9,1.77 1.31,2.68 0.42,0.9 0.81,1.83 1.19,2.81 h -4.69 c -0.28,-0.68 -0.57,-1.37 -0.88,-2.05 -0.3,-0.68 -0.63,-1.36 -0.98,-2.03 -0.13,0.02 -0.26,0.03 -0.4,0.05 -0.13,0 -0.27,0.02 -0.4,0.04 -0.13,0 -0.27,0.02 -0.42,0.02 -0.14,0 -0.28,0 -0.42,0.01 v 3.96 H 31.6 v -13.87 0 z m 4.19,6.89 h 0.6 c 0.94,0 1.66,-0.18 2.15,-0.53 0.49,-0.36 0.73,-0.83 0.73,-1.42 0,-0.27 -0.06,-0.52 -0.17,-0.75 -0.11,-0.23 -0.29,-0.42 -0.54,-0.59 -0.24,-0.16 -0.53,-0.29 -0.89,-0.38 -0.35,-0.09 -0.77,-0.13 -1.25,-0.13 h -0.64 v 3.79 0 z"
       id="path12" />
    <path
       class="cls-2"
       d="m 53.41,182.85 c 0.99,0 1.94,0.15 2.84,0.45 0.9,0.3 1.7,0.75 2.38,1.34 0.68,0.6 1.23,1.34 1.63,2.22 0.41,0.89 0.61,1.91 0.61,3.08 0,1.17 -0.2,2.26 -0.61,3.18 -0.41,0.91 -0.96,1.68 -1.66,2.3 -0.7,0.61 -1.52,1.07 -2.46,1.38 -0.93,0.31 -1.92,0.46 -2.97,0.46 -1.05,0 -1.96,-0.15 -2.86,-0.45 -0.9,-0.3 -1.69,-0.75 -2.37,-1.34 -0.68,-0.6 -1.23,-1.34 -1.64,-2.22 -0.4,-0.89 -0.6,-1.92 -0.6,-3.09 0,-1.17 0.2,-2.26 0.61,-3.17 0.41,-0.91 0.96,-1.67 1.66,-2.29 0.7,-0.62 1.52,-1.08 2.46,-1.39 0.94,-0.31 1.93,-0.46 2.98,-0.46 z m -0.17,3.58 c -0.42,0 -0.83,0.08 -1.23,0.23 -0.39,0.15 -0.74,0.37 -1.04,0.67 -0.29,0.3 -0.53,0.68 -0.71,1.12 -0.18,0.45 -0.27,0.97 -0.27,1.55 0,0.62 0.09,1.16 0.27,1.63 0.18,0.46 0.42,0.84 0.73,1.15 0.31,0.3 0.67,0.52 1.08,0.67 0.41,0.15 0.84,0.22 1.28,0.22 0.42,0 0.82,-0.07 1.21,-0.22 0.4,-0.15 0.75,-0.38 1.04,-0.68 0.3,-0.3 0.54,-0.67 0.72,-1.11 0.19,-0.45 0.28,-0.97 0.28,-1.55 0,-0.62 -0.09,-1.16 -0.28,-1.63 -0.18,-0.46 -0.42,-0.85 -0.73,-1.15 -0.3,-0.3 -0.66,-0.53 -1.06,-0.67 -0.41,-0.15 -0.84,-0.23 -1.28,-0.23 v 0 z"
       id="path13" />
    <path
       class="cls-2"
       d="m 63.75,183.12 c 0.35,-0.02 0.7,-0.03 1.05,-0.05 0.35,-0.02 0.7,-0.03 1.04,-0.04 0.35,-0.02 0.7,-0.02 1.04,-0.02 0.35,0 0.7,-0.01 1.06,-0.01 1.19,0 2.23,0.09 3.13,0.28 0.9,0.18 1.66,0.44 2.26,0.77 0.6,0.33 1.06,0.74 1.36,1.22 0.31,0.48 0.46,1.01 0.46,1.6 0,0.33 -0.04,0.63 -0.13,0.92 -0.09,0.29 -0.23,0.55 -0.42,0.78 -0.18,0.24 -0.4,0.45 -0.67,0.65 -0.27,0.19 -0.58,0.35 -0.93,0.5 0.43,0.1 0.82,0.24 1.15,0.44 0.34,0.19 0.63,0.42 0.87,0.68 0.24,0.26 0.42,0.55 0.55,0.88 0.13,0.33 0.2,0.68 0.2,1.05 0,0.71 -0.18,1.33 -0.53,1.87 -0.34,0.54 -0.85,0.99 -1.53,1.36 -0.68,0.37 -1.52,0.64 -2.53,0.83 -1.01,0.19 -2.18,0.28 -3.52,0.28 -0.35,0 -0.7,0 -1.04,-0.01 -0.33,0 -0.66,0 -0.99,-0.02 -0.32,0 -0.64,-0.02 -0.95,-0.04 -0.32,-0.02 -0.63,-0.03 -0.93,-0.05 z m 3.99,11.07 h 0.77 c 0.51,0 0.96,-0.03 1.33,-0.1 0.37,-0.06 0.68,-0.16 0.92,-0.28 0.24,-0.12 0.42,-0.27 0.54,-0.45 0.12,-0.18 0.18,-0.39 0.18,-0.62 0,-0.21 -0.06,-0.4 -0.17,-0.57 -0.11,-0.17 -0.29,-0.32 -0.54,-0.44 -0.24,-0.12 -0.54,-0.22 -0.92,-0.28 -0.37,-0.07 -0.81,-0.1 -1.32,-0.1 h -0.79 v 2.85 0 z m 0,-5.5 h 0.71 c 0.39,0 0.74,-0.03 1.04,-0.09 0.3,-0.07 0.55,-0.16 0.76,-0.28 0.2,-0.12 0.36,-0.27 0.46,-0.44 0.11,-0.17 0.16,-0.37 0.16,-0.61 0,-0.21 -0.06,-0.4 -0.17,-0.57 -0.11,-0.17 -0.26,-0.31 -0.48,-0.43 -0.2,-0.11 -0.46,-0.2 -0.76,-0.26 -0.3,-0.06 -0.65,-0.1 -1.04,-0.1 h -0.68 v 2.77 0 z"
       id="path14" />
    <polygon
       class="cls-2"
       points="82.6,196.99 78.41,196.99 78.41,183.12 82.6,183.12 "
       id="polygon14" />
    <path
       class="cls-2"
       d="m 92.2,192.45 c 0,1.57 -0.4,2.76 -1.21,3.57 -0.81,0.8 -1.99,1.2 -3.54,1.2 -0.55,0 -1.07,-0.06 -1.56,-0.18 -0.49,-0.11 -0.91,-0.27 -1.27,-0.46 l 0.67,-3.43 c 0.24,0.15 0.48,0.27 0.73,0.35 0.26,0.07 0.53,0.11 0.79,0.11 0.39,0 0.69,-0.11 0.89,-0.33 0.2,-0.23 0.31,-0.56 0.31,-0.99 v -9.17 h 4.19 v 9.34 0 z"
       id="path15" />
    <path
       class="cls-2"
       d="m 109.33,196.99 h -5.11 l -4.16,-6.88 c -0.22,-0.38 -0.42,-0.78 -0.61,-1.19 -0.19,-0.41 -0.36,-0.81 -0.51,-1.21 0.04,0.41 0.07,0.81 0.1,1.21 0.02,0.39 0.04,0.78 0.04,1.17 v 6.89 h -3.61 v -13.87 h 5.1 l 4.16,6.89 c 0.22,0.37 0.42,0.77 0.61,1.19 0.19,0.41 0.36,0.81 0.53,1.21 -0.06,-0.42 -0.1,-0.83 -0.12,-1.22 -0.02,-0.4 -0.04,-0.79 -0.04,-1.19 v -6.88 h 3.63 v 13.87 0 z"
       id="path16" />
    <path
       class="cls-2"
       d="m 113.11,193 c 0.57,0.36 1.16,0.63 1.76,0.81 0.61,0.17 1.23,0.26 1.85,0.26 0.27,0 0.5,-0.02 0.7,-0.05 0.2,-0.04 0.37,-0.1 0.5,-0.17 0.14,-0.08 0.24,-0.18 0.31,-0.29 0.06,-0.12 0.1,-0.26 0.1,-0.42 0,-0.21 -0.09,-0.4 -0.27,-0.56 -0.17,-0.16 -0.4,-0.32 -0.7,-0.46 -0.29,-0.15 -0.63,-0.29 -1,-0.44 -0.37,-0.15 -0.76,-0.32 -1.15,-0.5 -0.39,-0.18 -0.77,-0.39 -1.15,-0.62 -0.37,-0.24 -0.71,-0.51 -1,-0.82 -0.29,-0.32 -0.53,-0.68 -0.71,-1.09 -0.17,-0.42 -0.26,-0.9 -0.26,-1.44 0,-0.68 0.13,-1.3 0.38,-1.83 0.26,-0.55 0.63,-1 1.1,-1.37 0.47,-0.37 1.04,-0.66 1.71,-0.86 0.68,-0.2 1.43,-0.29 2.26,-0.29 0.83,0 1.58,0.08 2.29,0.24 0.72,0.16 1.38,0.41 1.98,0.73 l -0.87,3.09 c -0.53,-0.29 -1.06,-0.5 -1.59,-0.65 -0.52,-0.15 -1.04,-0.23 -1.55,-0.23 -0.24,0 -0.46,0.02 -0.64,0.06 -0.18,0.03 -0.33,0.09 -0.46,0.16 -0.12,0.06 -0.22,0.15 -0.28,0.26 -0.06,0.1 -0.09,0.22 -0.09,0.35 0,0.2 0.09,0.38 0.27,0.54 0.18,0.15 0.41,0.31 0.7,0.45 0.29,0.14 0.63,0.28 1,0.43 0.37,0.15 0.75,0.31 1.14,0.5 0.39,0.18 0.77,0.39 1.15,0.62 0.37,0.24 0.71,0.52 1,0.84 0.29,0.32 0.53,0.69 0.71,1.11 0.18,0.42 0.27,0.9 0.27,1.45 0,0.71 -0.13,1.34 -0.4,1.89 -0.26,0.55 -0.64,1.02 -1.12,1.41 -0.49,0.37 -1.08,0.66 -1.78,0.86 -0.69,0.2 -1.48,0.29 -2.36,0.29 -0.88,0 -1.76,-0.1 -2.55,-0.29 -0.78,-0.2 -1.47,-0.48 -2.07,-0.87 l 0.84,-3.1 v 0 z"
       id="path17" />
  </g>
</svg>
