<?xml version="1.0" encoding="UTF-8"?>
<svg id="Layer_1" data-name="Layer 1" xmlns="http://www.w3.org/2000/svg" viewBox="0 0 109.41 61">
  <defs>
    <style>
      .cls-1 {
        fill-rule: evenodd;
      }

      .cls-1, .cls-2 {
        fill: #1d1d1b;
      }
    </style>
  </defs>
  <path class="cls-2" d="M36.57,38.09c0-10.51-4.58-17.42-13.67-17.42-4.58,0-7.96,1.73-9.69,4.21h-.08c.3-2.03.53-5.26.53-7.73V.31H0v57.44c4.73,1.43,9.61,2.1,15.39,2.1,14.04,0,21.18-9.91,21.18-21.78h0ZM22.15,39.51c0,7.21-2.7,9.39-5.86,9.39-1.28,0-2.03-.08-2.63-.3v-7.88c0-5.78,2.33-8.64,4.81-8.64s3.68,2.03,3.68,7.43h0Z"/>
  <path class="cls-2" d="M109.41,46.87c0-11.41-12.31-11.34-12.31-14.34,0-1.13.9-1.73,2.78-1.73,2.1,0,4.36.23,6.16.75l.3-10.51c-2.03-.23-4.21-.45-6.23-.45-11.71,0-17.27,6.08-17.27,12.99,0,12.09,12.01,10.21,12.01,14.27,0,1.13-.98,1.65-3,1.65-2.7,0-5.48-.53-7.66-1.13l-.3,10.81c2.48.23,5.11.6,7.73.6,10.66,0,17.8-4.81,17.8-12.92h0Z"/>
  <path class="cls-1" d="M79.9,38.79c-.18-.56.13-1.55-.21-2.01-.52-.7-.85-3.28-1.13-4.16-.38-1.19-1.63-4.01-2.56-4.68-.64-.46-1.43-1.21-1.93-1.88-.33-.44-.64-1.33-1.19-1.72-1.06-.76-1.97-1.63-3.19-2.38-1.91-1.18-2.51-.95-3.75-2.61-.4-.53-.51-2.06-.86-2.3-.35-.24-.99.69-1.24.84-.69.41-1.51.82-2.25.99-.72.16-2.57.08-3.03.35-.32.19-3.04,1.04-3.54,1.15-.93.21-1.8.86-2.77,1.07-1.36.31-2.8,1.19-3.93,1.86-.52.31-.82.92-1.34,1.23-.84.5-1.99,1.89-2.53,2.75-.53.84-1.41,1.53-1.92,2.35-1.14,1.8-1.65,3.78-2.1,5.86-.12.24-.1.15-.12.24-.09.42,0,.92-.09,1.33-.11.51-.32,2.94-.19,3.37.6,1.9.12,7.94,1.12,9.26.95,1.27.83,2.46,1.58,3.47.68.91,1.81,1.78,2.5,2.7.57.76,1.79,1.27,2.35,2.01.35.47,1.54.55,1.91,1.05.6.8,5.86-.06,6.92.69,2.08,1.48,6.59,1.79,8.34.81.67-.38,1.22-.94,1.94-1.34,3.38-1.9,7.62-4.69,9.83-8.09.88-1.35,1.15-2.97,1.9-4.36.16-.3.06-.71.22-1,.48-.89,1.25-2.87.94-3.86-.22-.71.62-2.14.35-2.98ZM71.6,38.85c.77.62.84,1.95.86,2.86.04,1.76-1.58,2.82-2.65,3.89-.25.25-.68.25-.99.18-.16-.03-.46-.12-.46-.12,0,0,.07.02.1.04.2.16.36.19.51.42.25.39.78,1.29.77,1.77-.04,1.8-.54,3.13-2.06,4.14-.14.09-.34.31-.5.35-.97.27-1.44.57-2.38,0-.08-.05-.4-.31-.4-.31,0,0,.08.29.11.41.09.36.15,1.1-.03,1.47-.66,1.35-1.21,2.52-2.82,2.96-.28.08-1.02.19-1.3-.04-.35-.28-.63-.67-.96-1.02-.21-.22-.25-.68-.46-.85-.19-.16-.44-.46-.54-.7-.07-.19-.07-.39-.14-.57-.16-.41-.45-.8-.54-1.18-.06-.25-.49-.46-.61-.65-.08-.13-.47.07-.54.12-.46.31-.88.72-1.28.99-.19.13-.32.36-.49.53-.52.52-1.05,1.02-1.64,1.41-.43.29-1.02.22-1.5.28-.32.04-.73-.22-.99-.34-1.13-.56-1.29-1.28-1.89-2.23-.13-.21-.06-.48-.17-.65-.08-.12.09-.3.05-.44-.09-.36.42-1.27.56-1.57.06-.11.04-.28.11-.39.01-.02.1-.14.1-.14,0,0-.07,0-.09,0-.38-.08-.88.23-1.28-.02-.59-.35-.97-.63-1.38-1.29-.65-1.02-.65-3.96.13-4.95.38-.49.84-.6,1.24-1.11.08-.1.25-.2.32-.25.03-.02.14-.04.14-.04,0,0-.05-.03-.08-.04-.28-.06-.52-.23-.73-.4-.56-.45-1.49-1.84-1.57-2.6-.18-1.8,1.13-3.44,2.18-4.48.19-.19.33-.44.55-.59.11-.07.27-.17.41-.19.02.02-.18-.15-.21-.2-.12-.19-.35-.53-.38-.81-.07-.72,0-1.57.33-2.25.34-.7,1.27-2.08,2.1-2.18.39-.05.88-.07,1.26-.17.05-.01.23.05.26,0,.19-.25.09-.74.28-.99.78-.99,1.28-2.3,2.67-2.47,1.88-.23,3.11,2.98,3.46,4.4.08.31-.09.92.08,1.17.16.26.53.01.65-.14.15-.19.99-1.25,1.25-1.35.3-.13.78-.34.99-.48.13-.08.46.22.52.27.32.26.46.98.56,1.39.03.1-.15,1.05.07.99.48-.13.84-1.04,1.22-1.43.99-.98,2.19-1.53,3.45-1.88.39-.11,1.11-.26,1.5.06.97.78,1.47,2.09,1.51,3.47,0,.29-.03.65-.22.89-.01.02-.1.08-.07.12,0,.01.83.12.95.22.93.75,1.32.75,1.47,2.21.11,1.1-.74,2.09-1.21,2.91-.16.27-.48.63-.73.8-.03.02-.39.18-.36.22.04.06.79.39.93.51Z"/>
  <path class="cls-1" d="M54.37,47.94c.13-.17.63-.8.79-.9l.41-.16h.36c.53.12.87.64.76,1.17-.05.26-.2.47-.41.61-.11.15-.45.59-.53.68-.27.27-.99.58-1.64.9-.14.07-.34.2-.44.27-.06.42-.4.78-.84.83-.54.07-1.03-.31-1.1-.84v-.44s.13-.39.13-.39c.12-.26.33-.51.62-.74.34-.26.83-.5,1.28-.7.22-.1.53-.26.61-.3h0Z"/>
  <path class="cls-1" d="M53.49,40.22c.06.16.18.46.19.52.22.66.28,1.35.35,2.04.06.55-.06,1.54-.36,2.04-.05.09-.21.33-.26.4-.17.44-.64.7-1.12.6-.53-.12-.86-.64-.75-1.16.03-.15.31-.62.43-.82.12-.21.12-.64.1-.86-.06-.55-.09-1.1-.26-1.63-.03-.1-.23-.55-.28-.81l-.04-.33.04-.26.1-.25.14-.19.17-.15.21-.11c.5-.19,1.07.06,1.26.57.05.13.07.27.06.4h0Z"/>
  <path class="cls-1" d="M56.15,39.35l.18-.61c0-.19.05-.47.06-.57-.04-.25-.17-.52-.24-.78-.07-.12-.26-.48-.29-.66l-.02-.24.04-.28c.14-.52.68-.83,1.2-.69.39.11.66.44.71.82.08.13.2.37.23.49.09.38.28.82.32,1.19.02.19-.05.58-.06.66,0,.21-.05.57-.15.92-.11.39-.29.76-.41.9-.05.07-.15.18-.22.26-.07.11-.17.21-.28.28l-.35.15-.25.02-.28-.05-.3-.17-.24-.29-.08-.2-.04-.25.04-.29.1-.24s.2-.24.33-.4h0Z"/>
  <path class="cls-1" d="M52.73,34.2l.37-.12c.79-.84,1.26-1.92,2.13-2.7.53-.47.78-.69,1.44-.87.52-.14,1.06.16,1.2.68.14.52-.16,1.06-.68,1.2-.31.09-.41.22-.66.44-.87.78-1.32,1.9-2.15,2.72l-.32.23c-.2.11-.62.26-.94.34l-.45.06-.4-.07-.32-.19-.22-.27-.11-.29v-.28c.03-.54.5-.94,1.04-.89.02,0,.03,0,.05,0h0Z"/>
  <path class="cls-1" d="M67.84,37.02c.09.07.46.37.62.5.42.34.48.96.14,1.38-.34.42-.96.48-1.38.14-.25-.2-.63-.45-.87-.73-.11-.12-.2-.25-.27-.38l-.13-.35c-.12-.49-.19-.99-.3-1.44-.08-.33-.04-.96-.05-1.57,0-.14-.04-.35-.06-.48-.52.06-1-.31-1.08-.83-.08-.53.29-1.03.83-1.11.29-.04.53-.03.75,0l.37.11.33.19.4.41c.13.19.23.41.3.66.12.42.13.95.12,1.43,0,.29-.04.55,0,.71.11.43.17.9.28,1.36h0Z"/>
  <path class="cls-1" d="M62.8,37.6c.04-.07.09-.14.15-.2l.29-.22.28-.09h.24s.22.03.22.03l.2.09.19.14.21.3.09.36-.02.25-.1.27c-.04.07-.36.5-.51.65-.18.18-.23.42-.35.63-.21.36-.5.92-.49,1.36.03.1.13.37.14.48v.42c-.13.53-.65.86-1.18.75-.43-.09-.73-.46-.77-.88-.04-.12-.13-.4-.14-.52-.08-.8.35-1.93.74-2.6.21-.35.36-.73.66-1.03.03-.03.09-.11.14-.17h0Z"/>
  <path class="cls-1" d="M66.66,44.03c-.09.12-.31.42-.34.49-.16.34-.48.63-.71.92-.33.42-.46,1.18-.36,1.69.1.53-.25,1.04-.78,1.14-.53.1-1.04-.25-1.14-.78-.18-.99.11-2.44.75-3.25.15-.19.39-.35.49-.57.09-.18.54-.87.82-1.13l.19-.15.25-.12.28-.05.26.02c.53.11.87.63.76,1.16-.06.28-.23.51-.46.64h0Z"/>
  <path class="cls-1" d="M60.61,52.37l-.06-.14c-.03-.09-.06-.26-.08-.34-.98-.83-1.85-2.18-1.46-3.58.15-.52.68-.82,1.2-.68.52.14.82.68.68,1.2-.07.27,0,.52.13.75.19.34.48.63.75.85l.32.34.24.51c.04.14.1.41.1.41l.11.27.04.38-.03.37-.13.32-.15.19-.22.16-.41.11-.3-.03-.25-.1-.19-.15-.14-.18c-.13-.2-.17-.44-.14-.66h0Z"/>
  <path class="cls-2" d="M18.44.27c.72-.04,1.41-.07,2.08-.09.68-.02,1.26-.04,1.75-.04,1.34,0,2.52.11,3.53.33,1.01.22,1.85.54,2.53.95.68.42,1.2.93,1.54,1.54.35.6.53,1.29.53,2.05s-.18,1.43-.53,2.05c-.34.61-.85,1.14-1.54,1.58.46.88.9,1.77,1.31,2.68.42.9.81,1.83,1.19,2.81h-4.69c-.28-.68-.57-1.37-.88-2.05-.3-.68-.63-1.36-.98-2.03-.13.02-.26.03-.4.05-.13,0-.27.02-.4.04-.13,0-.27.02-.42.02-.14,0-.28,0-.42.01v3.96h-4.19V.27h0ZM22.63,7.16h.6c.94,0,1.66-.18,2.15-.53.49-.36.73-.83.73-1.42,0-.27-.06-.52-.17-.75-.11-.23-.29-.42-.54-.59-.24-.16-.53-.29-.89-.38-.35-.09-.77-.13-1.25-.13h-.64v3.79h0Z"/>
  <path class="cls-2" d="M40.26,0c.99,0,1.94.15,2.84.45.9.3,1.7.75,2.38,1.34.68.6,1.23,1.34,1.63,2.22.41.89.61,1.91.61,3.08s-.2,2.26-.61,3.18c-.41.91-.96,1.68-1.66,2.3-.7.61-1.52,1.07-2.46,1.38-.93.31-1.92.46-2.97.46s-1.96-.15-2.86-.45c-.9-.3-1.69-.75-2.37-1.34-.68-.6-1.23-1.34-1.64-2.22-.4-.89-.6-1.92-.6-3.09s.2-2.26.61-3.17c.41-.91.96-1.67,1.66-2.29.7-.62,1.52-1.08,2.46-1.39.94-.31,1.93-.46,2.98-.46h0ZM40.09,3.58c-.42,0-.83.08-1.23.23-.39.15-.74.37-1.04.67-.29.3-.53.68-.71,1.12-.18.45-.27.97-.27,1.55,0,.62.09,1.16.27,1.63.18.46.42.84.73,1.15.31.3.67.52,1.08.67.41.15.84.22,1.28.22.42,0,.82-.07,1.21-.22.4-.15.75-.38,1.04-.68.3-.3.54-.67.72-1.11.19-.45.28-.97.28-1.55,0-.62-.09-1.16-.28-1.63-.18-.46-.42-.85-.73-1.15-.3-.3-.66-.53-1.06-.67-.41-.15-.84-.23-1.28-.23h0Z"/>
  <path class="cls-2" d="M50.6.27c.35-.02.7-.03,1.05-.05.35-.02.7-.03,1.04-.04.35-.02.7-.02,1.04-.02.35,0,.7-.01,1.06-.01,1.19,0,2.23.09,3.13.28.9.18,1.66.44,2.26.77.6.33,1.06.74,1.36,1.22.31.48.46,1.01.46,1.6,0,.33-.04.63-.13.92-.09.29-.23.55-.42.78-.18.24-.4.45-.67.65-.27.19-.58.35-.93.5.43.1.82.24,1.15.44.34.19.63.42.87.68.24.26.42.55.55.88.13.33.2.68.2,1.05,0,.71-.18,1.33-.53,1.87-.34.54-.85.99-1.53,1.36-.68.37-1.52.64-2.53.83-1.01.19-2.18.28-3.52.28-.35,0-.7,0-1.04-.01-.33,0-.66,0-.99-.02-.32,0-.64-.02-.95-.04-.32-.02-.63-.03-.93-.05V.27h0ZM54.59,11.34h.77c.51,0,.96-.03,1.33-.1.37-.06.68-.16.92-.28.24-.12.42-.27.54-.45.12-.18.18-.39.18-.62,0-.21-.06-.4-.17-.57-.11-.17-.29-.32-.54-.44-.24-.12-.54-.22-.92-.28-.37-.07-.81-.1-1.32-.1h-.79v2.85h0ZM54.59,5.84h.71c.39,0,.74-.03,1.04-.09.3-.07.55-.16.76-.28.2-.12.36-.27.46-.44.11-.17.16-.37.16-.61,0-.21-.06-.4-.17-.57-.11-.17-.26-.31-.48-.43-.2-.11-.46-.2-.76-.26-.3-.06-.65-.1-1.04-.1h-.68v2.77h0Z"/>
  <polygon class="cls-2" points="69.45 14.14 65.26 14.14 65.26 .27 69.45 .27 69.45 14.14 69.45 14.14"/>
  <path class="cls-2" d="M79.05,9.61c0,1.57-.4,2.76-1.21,3.57-.81.8-1.99,1.2-3.54,1.2-.55,0-1.07-.06-1.56-.18-.49-.11-.91-.27-1.27-.46l.67-3.43c.24.15.48.27.73.35.26.07.53.11.79.11.39,0,.69-.11.89-.33.2-.23.31-.56.31-.99V.27h4.19v9.34h0Z"/>
  <path class="cls-2" d="M96.18,14.14h-5.11l-4.16-6.88c-.22-.38-.42-.78-.61-1.19-.19-.41-.36-.81-.51-1.21.04.41.07.81.1,1.21.02.39.04.78.04,1.17v6.89h-3.61V.27h5.1l4.16,6.89c.22.37.42.77.61,1.19.19.41.36.81.53,1.21-.06-.42-.1-.83-.12-1.22-.02-.4-.04-.79-.04-1.19V.27h3.63v13.87h0Z"/>
  <path class="cls-2" d="M99.96,10.16c.57.36,1.16.63,1.76.81.61.17,1.23.26,1.85.26.27,0,.5-.02.7-.05.2-.04.37-.1.5-.17.14-.08.24-.18.31-.29.06-.12.1-.26.1-.42,0-.21-.09-.4-.27-.56-.17-.16-.4-.32-.7-.46-.29-.15-.63-.29-1-.44-.37-.15-.76-.32-1.15-.5-.39-.18-.77-.39-1.15-.62-.37-.24-.71-.51-1-.82-.29-.32-.53-.68-.71-1.09-.17-.42-.26-.9-.26-1.44,0-.68.13-1.3.38-1.83.26-.55.63-1,1.1-1.37.47-.37,1.04-.66,1.71-.86.68-.2,1.43-.29,2.26-.29s1.58.08,2.29.24c.72.16,1.38.41,1.98.73l-.87,3.09c-.53-.29-1.06-.5-1.59-.65-.52-.15-1.04-.23-1.55-.23-.24,0-.46.02-.64.06-.18.03-.33.09-.46.16-.12.06-.22.15-.28.26-.06.1-.09.22-.09.35,0,.2.09.38.27.54.18.15.41.31.7.45.29.14.63.28,1,.43.37.15.75.31,1.14.5.39.18.77.39,1.15.62.37.24.71.52,1,.84.29.32.53.69.71,1.11.18.42.27.9.27,1.45,0,.71-.13,1.34-.4,1.89-.26.55-.64,1.02-1.12,1.41-.49.37-1.08.66-1.78.86-.69.2-1.48.29-2.36.29s-1.76-.1-2.55-.29c-.78-.2-1.47-.48-2.07-.87l.84-3.1h0Z"/>
</svg>